<?xml version="1.0" standalone="no"?>
<!DOCTYPE svg PUBLIC "-//W3C//DTD SVG 20010904//EN"
 "http://www.w3.org/TR/2001/REC-SVG-20010904/DTD/svg10.dtd">
<svg version="1.0" xmlns="http://www.w3.org/2000/svg"
 width="995.000000pt" height="1013.000000pt" viewBox="0 0 995.000000 1013.000000"
 preserveAspectRatio="xMidYMid meet">
<metadata>
Created by potrace 1.16, written by Peter Selinger 2001-2019
</metadata>
<g transform="translate(0.000000,1013.000000) scale(0.100000,-0.100000)"
fill="#000000" stroke="none">
<path d="M5095 9348 c-49 -5 -99 -8 -110 -7 -46 5 -215 -1 -475 -17 l-155 -9
90 -6 90 -5 -116 -2 c-137 -2 -171 -8 -197 -33 -11 -10 -32 -21 -46 -25 -29
-7 -57 -34 -35 -34 8 0 6 -5 -6 -14 -10 -7 -26 -11 -36 -9 -9 3 -20 0 -23 -6
-4 -6 -2 -11 3 -11 6 0 11 -4 11 -9 0 -5 -9 -7 -20 -4 -15 4 -19 2 -15 -10 4
-10 -2 -17 -20 -21 -14 -4 -23 -11 -20 -16 3 -6 -3 -10 -14 -10 -16 0 -19 5
-15 27 3 15 10 30 15 34 6 4 3 9 -8 13 -12 5 -23 0 -35 -16 -10 -13 -22 -27
-26 -33 -4 -5 -11 -18 -15 -28 -4 -10 -12 -15 -18 -11 -8 5 -10 -4 -7 -29 2
-20 0 -33 -5 -30 -5 3 -6 32 -4 64 3 32 2 59 -2 59 -11 0 -39 -150 -36 -192 3
-37 2 -38 -31 -38 -19 0 -34 4 -34 9 0 12 -85 16 -145 6 -16 -2 -39 -6 -50 -7
-11 -2 -27 -11 -36 -20 -9 -10 -22 -18 -28 -18 -6 0 -23 -7 -36 -16 -14 -9
-25 -14 -25 -10 0 3 -9 -3 -20 -14 -11 -11 -28 -20 -38 -20 -10 0 -24 -6 -31
-12 -11 -11 -12 -10 -6 2 5 8 -3 5 -17 -7 -13 -13 -32 -23 -41 -23 -10 0 -29
-7 -42 -16 -13 -9 -29 -13 -35 -9 -5 3 -10 1 -10 -6 0 -7 -3 -10 -6 -6 -3 3
-14 -3 -25 -14 -11 -11 -25 -17 -31 -13 -7 5 -8 3 -3 -6 6 -10 4 -12 -8 -7 -9
3 -19 1 -23 -5 -4 -6 -3 -8 4 -4 6 3 13 2 17 -4 3 -5 1 -10 -5 -10 -7 0 -29
-13 -49 -28 -20 -15 -48 -34 -63 -41 -15 -8 -25 -18 -22 -23 3 -4 -2 -8 -10
-8 -9 0 -16 -5 -16 -11 0 -5 -4 -7 -10 -4 -5 3 -10 1 -10 -5 0 -6 -4 -9 -9 -6
-5 3 -12 -1 -15 -10 -3 -8 -11 -12 -17 -8 -7 4 -10 3 -7 -2 8 -12 -17 -35 -28
-26 -4 4 -4 1 0 -6 5 -8 -5 -25 -28 -47 -20 -18 -36 -39 -36 -45 0 -7 -7 -9
-16 -6 -15 6 -15 4 -3 -11 12 -15 12 -16 -5 -10 -16 6 -17 5 -6 -8 8 -9 8 -15
2 -15 -6 0 -13 -9 -17 -20 -3 -11 -12 -19 -18 -17 -7 1 -11 -4 -9 -10 1 -7 -3
-13 -10 -13 -6 0 -9 -3 -5 -6 3 -4 -2 -14 -11 -23 -12 -10 -13 -13 -2 -7 8 5
3 -3 -12 -18 -16 -15 -28 -30 -28 -34 0 -16 -66 -79 -100 -94 -60 -28 -97 -83
-110 -164 -9 -53 -39 -112 -89 -175 -12 -16 -35 -53 -51 -82 -15 -28 -46 -88
-70 -131 -24 -43 -38 -76 -33 -73 6 4 3 -9 -5 -28 -19 -42 -29 -44 -43 -8 -20
52 -61 95 -116 119 -67 30 -108 30 -176 1 -92 -41 -133 -112 -125 -218 6 -79
43 -134 117 -171 68 -35 119 -36 189 -3 62 29 62 29 62 14 0 -5 -4 -7 -10 -4
-6 4 -7 -1 -3 -11 5 -13 3 -15 -7 -9 -9 5 -11 4 -6 -3 4 -7 3 -12 -3 -12 -9 0
-20 -22 -21 -42 -3 -38 -38 -98 -87 -146 -93 -91 -227 -239 -233 -257 -3 -8
-21 -32 -41 -53 -48 -50 -129 -158 -129 -171 0 -6 -4 -11 -8 -11 -4 0 -32 -36
-61 -80 -29 -44 -56 -82 -62 -85 -5 -4 -25 -39 -45 -79 -19 -41 -43 -82 -53
-92 -14 -16 -55 -86 -118 -204 -7 -14 -13 -28 -13 -33 0 -4 -16 -40 -36 -80
-74 -147 -138 -307 -195 -482 -10 -33 -23 -69 -29 -80 -13 -28 -50 -160 -62
-220 -6 -27 -23 -113 -39 -190 -70 -345 -89 -527 -89 -856 0 -299 25 -528 100
-899 31 -154 92 -377 119 -435 17 -35 71 -191 71 -203 0 -12 39 -100 120 -267
26 -55 51 -109 54 -119 4 -11 41 -77 84 -148 42 -71 87 -148 100 -171 12 -23
44 -71 71 -107 27 -36 46 -68 43 -72 -9 -9 -215 -97 -312 -133 -69 -26 -84
-36 -191 -145 -71 -71 -119 -127 -123 -145 -4 -16 -16 -40 -26 -54 -10 -15
-45 -78 -78 -141 -33 -63 -81 -153 -106 -200 -65 -120 -130 -258 -145 -305 -8
-22 -28 -75 -47 -117 -29 -67 -114 -321 -114 -341 0 -4 2149 -7 4776 -7 l4777
0 -6 53 c-9 85 -94 420 -149 587 -97 296 -232 510 -423 673 -70 61 -236 155
-322 185 -32 10 -33 13 -33 64 -1 95 -52 172 -137 209 -88 37 -181 14 -246
-61 -35 -41 -37 -42 -67 -30 -16 7 -30 14 -30 17 0 2 24 39 52 81 29 42 70
109 90 147 20 39 55 104 77 145 95 180 111 214 111 234 0 12 4 26 10 32 18 18
133 305 152 379 5 22 23 85 38 140 35 120 92 366 115 490 53 281 57 974 9
1290 -25 166 -60 322 -116 520 -21 77 -44 158 -50 180 -12 49 -67 192 -107
277 -16 35 -36 83 -44 108 -16 47 -93 202 -152 305 -18 33 -34 65 -34 71 -1 7
-16 34 -33 61 -18 27 -58 89 -88 137 -86 137 -116 180 -147 214 -16 18 -40 51
-54 73 -13 23 -35 54 -49 69 -14 16 -52 61 -85 100 -79 95 -404 419 -495 495
-40 33 -80 68 -89 77 -9 10 -45 35 -78 57 -34 22 -70 48 -80 58 -31 31 -116
89 -150 103 -18 7 -33 16 -33 20 0 4 -39 31 -87 61 -49 29 -94 59 -101 66 -7
7 -20 13 -28 13 -34 0 -156 83 -162 110 -4 17 -32 39 -50 40 -7 0 -10 5 -7 10
3 6 2 10 -2 10 -5 0 -10 11 -11 25 -1 14 -9 40 -19 58 -9 18 -18 38 -19 45 -1
7 -12 34 -24 59 -15 31 -19 55 -15 72 27 101 10 194 -46 247 -15 15 -26 31
-23 35 3 5 -1 6 -9 3 -8 -3 -18 -1 -21 5 -4 5 -28 13 -54 17 -26 4 -54 15 -63
25 -9 11 -18 19 -21 19 -2 0 -28 23 -56 50 -29 28 -49 50 -46 50 3 0 -1 7 -8
15 -31 34 -36 43 -31 49 4 3 1 6 -5 6 -7 0 -12 8 -12 19 0 10 -7 24 -15 31 -8
7 -15 9 -15 6 0 -4 -6 -1 -14 6 -8 7 -11 17 -6 22 5 5 -2 23 -16 41 -13 17
-24 35 -24 39 0 9 -26 36 -35 36 -4 0 -16 10 -27 23 l-19 22 6 -38 c4 -24 2
-44 -6 -53 -8 -10 -9 -14 0 -14 6 0 16 10 21 23 6 16 9 18 9 5 1 -11 6 -15 15
-12 16 6 46 -21 46 -42 0 -8 4 -14 9 -14 5 0 7 -9 4 -20 -4 -16 -10 -19 -27
-14 -11 4 -34 8 -50 9 -27 2 -28 1 -11 -12 29 -20 12 -16 -57 17 -34 16 -69
30 -76 30 -7 0 -10 5 -7 10 3 6 -4 10 -17 10 -13 0 -41 7 -63 16 l-40 15 35
-5 c32 -4 29 -2 -22 23 -32 16 -55 30 -53 33 5 5 -207 78 -226 78 -6 0 0 -9
14 -20 14 -11 29 -20 35 -20 5 0 17 -9 26 -19 17 -19 17 -19 -6 -14 -17 4 -20
3 -12 -6 6 -7 38 -16 70 -21 65 -9 94 -18 94 -30 0 -4 20 -13 45 -20 25 -7 45
-16 45 -21 0 -4 10 -9 22 -11 12 -2 23 -8 25 -15 5 -13 -7 -12 -65 6 -37 11
-37 11 -58 11 -8 0 -12 5 -9 10 3 6 -1 10 -11 10 -15 0 -15 -2 -2 -22 19 -29
13 -47 -12 -41 -24 6 -25 0 -4 -21 8 -9 27 -16 42 -17 24 0 25 -1 7 -9 -18 -8
-17 -9 8 -9 15 -1 38 -8 51 -16 12 -8 43 -18 67 -21 24 -3 62 -12 84 -20 22
-8 54 -14 70 -15 25 0 27 -2 10 -8 -17 -7 -14 -9 15 -14 35 -7 166 -87 142
-87 -7 0 -10 -5 -7 -10 4 -6 9 -9 13 -7 4 2 15 -4 25 -15 16 -17 16 -18 -1
-18 -10 0 -26 6 -37 14 -11 7 -33 16 -48 20 -15 4 -25 11 -22 16 5 8 -52 44
-80 50 -16 4 -38 11 -77 26 -24 9 -38 10 -38 4 0 -6 7 -13 15 -16 27 -11 17
-34 -14 -34 l-29 0 22 -44 c13 -27 24 -39 28 -32 6 8 8 8 8 -1 0 -6 3 -18 6
-27 3 -9 1 -16 -5 -16 -6 0 -20 -9 -30 -19 -18 -18 -18 -20 -3 -26 10 -4 13
-9 6 -13 -7 -5 -5 -17 7 -37 11 -16 19 -25 19 -20 0 7 3 7 8 0 9 -12 58 -45
94 -64 15 -8 25 -17 23 -21 -2 -4 16 -19 41 -35 25 -16 51 -37 58 -46 7 -10
38 -38 70 -63 31 -24 56 -46 54 -48 -2 -2 7 -16 20 -32 12 -16 22 -22 22 -15
0 9 5 6 12 -6 6 -11 15 -23 20 -26 6 -3 8 -9 6 -12 -1 -3 15 -24 36 -47 44
-47 106 -127 106 -136 0 -3 14 -20 31 -37 18 -17 38 -46 45 -64 8 -17 22 -38
32 -45 16 -11 52 -71 52 -86 0 -2 -7 1 -15 8 -8 7 -15 19 -15 26 0 8 -4 14 -9
14 -4 0 -20 18 -35 40 -14 22 -24 40 -21 40 5 0 -18 29 -45 59 -9 9 -29 35
-45 59 -16 24 -38 50 -49 58 -11 8 -15 14 -7 14 7 0 -2 12 -21 27 -34 29 -63
63 -63 76 0 4 -4 7 -8 7 -4 -1 -27 21 -50 48 -23 28 -62 66 -87 87 -25 21 -43
39 -40 41 3 2 -15 16 -40 32 -25 16 -54 38 -65 48 -11 11 -40 32 -64 48 -44
28 -44 28 -37 5 5 -13 10 -37 13 -54 4 -18 30 -54 69 -94 35 -36 64 -72 64
-81 0 -9 7 -25 15 -36 8 -10 15 -28 15 -39 0 -17 2 -17 10 -5 9 13 10 13 11 0
1 -8 1 -21 0 -27 -1 -7 3 -13 9 -13 6 0 9 -4 6 -9 -3 -5 1 -12 10 -15 8 -3 14
-11 13 -18 -5 -22 12 -59 23 -52 6 4 8 2 4 -4 -3 -6 -2 -13 4 -17 5 -3 10 -1
10 4 0 6 7 11 15 11 8 0 16 10 16 23 4 55 4 62 1 69 -2 4 -9 2 -16 -5 -10 -9
-11 -14 -2 -19 7 -5 5 -8 -6 -8 -15 0 -25 29 -15 44 1 2 -7 13 -17 25 -17 19
-18 21 -2 21 10 0 14 5 11 11 -4 6 -9 8 -12 5 -2 -2 -14 5 -25 16 -11 11 -18
22 -15 24 2 2 10 -2 17 -11 7 -8 17 -15 22 -15 6 0 4 7 -3 16 -13 16 -22 71
-10 58 6 -5 7 -9 10 -35 0 -5 6 -7 11 -4 6 4 9 3 8 -2 -2 -5 11 -22 27 -38 17
-17 42 -45 58 -63 15 -19 27 -30 27 -27 0 4 7 2 15 -5 8 -7 12 -16 9 -21 -3
-5 2 -12 10 -15 9 -3 14 -10 11 -14 -3 -4 2 -13 10 -20 12 -10 13 -16 3 -28
-11 -13 -10 -15 5 -9 31 12 47 -3 45 -42 l-1 -36 -4 33 c-2 17 -8 32 -14 32
-5 0 -11 0 -14 0 -3 0 -4 -3 -2 -7 1 -5 6 -7 11 -5 5 2 6 -15 3 -38 -3 -22 -1
-43 4 -46 5 -3 9 -26 10 -52 1 -38 2 -42 9 -22 7 21 8 18 10 -20 2 -43 17
-108 19 -82 1 6 6 12 12 12 5 0 7 -4 4 -10 -3 -5 0 -10 7 -10 9 0 9 -3 -2 -10
-12 -8 -10 -10 8 -10 13 0 20 4 17 10 -3 6 -1 10 5 10 6 0 10 -10 8 -22 -4
-27 -37 -37 -50 -15 -4 8 -16 14 -26 13 -9 -2 -27 7 -39 20 -12 13 -35 25 -53
26 -17 1 -38 10 -47 20 -9 10 -13 18 -10 18 4 0 -2 9 -13 20 -11 11 -24 20
-30 20 -5 0 -10 5 -10 11 0 5 -4 8 -9 5 -11 -7 -43 28 -34 37 3 4 1 7 -6 7 -7
0 -11 7 -8 14 4 10 1 13 -7 10 -8 -3 -21 5 -30 18 -11 15 -16 17 -16 8 -1 -12
-3 -11 -11 3 -11 19 -44 23 -55 5 -4 -6 6 -23 25 -40 17 -15 29 -28 26 -28 -3
0 0 -6 7 -14 7 -8 16 -12 20 -10 4 3 12 -5 18 -16 6 -11 15 -18 19 -15 13 8
32 -21 25 -38 -5 -13 17 -60 36 -77 3 -3 20 -36 37 -74 30 -65 31 -71 15 -84
-16 -13 -16 -13 0 -8 10 3 23 -2 30 -13 7 -10 17 -19 22 -19 14 -2 21 -36 17
-92 -2 -19 -5 -29 -8 -21 -3 7 -14 22 -25 33 -10 10 -16 23 -13 28 3 4 -1 11
-7 13 -9 4 -10 8 -2 14 7 5 8 16 3 28 -4 11 -8 14 -8 8 -1 -19 -21 -16 -21 3
0 8 -4 12 -10 9 -5 -3 -7 0 -4 8 3 8 1 18 -5 22 -6 3 -11 15 -11 27 0 16 3 18
14 9 11 -9 10 -2 -2 33 -9 25 -18 43 -21 41 -4 -5 -35 47 -47 78 -3 9 -13 16
-22 15 -8 -2 -17 4 -19 12 -4 12 -3 12 5 1 5 -7 12 -9 15 -5 3 5 -4 20 -16 34
-12 15 -18 18 -14 8 10 -28 -9 -30 -27 -3 -9 14 -14 25 -10 25 4 0 1 7 -6 15
-7 8 -16 12 -21 9 -5 -3 -9 0 -9 5 0 6 5 11 10 11 6 0 0 12 -14 27 -22 24 -28
25 -51 15 -34 -16 -42 -40 -23 -71 8 -14 21 -37 29 -51 8 -14 16 -27 19 -30 3
-3 16 -20 29 -38 13 -18 25 -31 27 -29 8 8 -43 87 -51 80 -4 -5 -5 -2 0 6 4 8
2 17 -6 22 -7 4 -10 11 -6 15 9 9 37 -17 41 -37 2 -8 15 -39 29 -69 17 -36 24
-63 20 -79 -5 -20 -3 -23 11 -18 13 5 16 0 16 -23 0 -17 5 -29 10 -28 11 3 70
-123 70 -149 0 -8 5 -11 10 -8 6 3 10 0 10 -6 0 -7 16 -50 36 -96 19 -45 37
-92 39 -103 5 -26 24 -59 25 -42 0 7 5 10 10 7 6 -4 7 -11 4 -17 -4 -7 -2 -8
4 -4 7 4 12 1 12 -8 0 -8 -3 -16 -7 -19 -5 -2 -3 -2 4 -1 6 2 21 -15 32 -37
11 -21 16 -39 10 -39 -6 0 -4 -7 5 -15 8 -8 18 -15 21 -15 4 0 14 -9 23 -21
16 -19 17 -18 14 33 -2 51 -2 52 12 27 17 -29 28 -109 16 -109 -5 0 -10 3 -13
8 -2 4 -2 0 1 -8 3 -8 6 -28 8 -45 5 -51 36 -128 45 -113 6 9 9 8 9 -7 0 -11
19 -56 41 -100 22 -44 38 -70 36 -58 -7 32 16 19 33 -20 8 -17 15 -37 16 -44
1 -7 11 -25 22 -40 11 -15 23 -38 26 -50 4 -13 12 -23 17 -23 5 0 9 -15 9 -33
0 -18 6 -41 14 -52 7 -11 14 -23 15 -27 1 -4 9 -25 18 -45 9 -21 17 -40 18
-43 6 -27 18 -49 25 -45 4 3 10 -4 13 -14 11 -44 -22 -6 -58 65 -20 41 -39 73
-41 71 -3 -2 14 -41 36 -86 39 -78 42 -81 76 -81 22 0 33 4 29 10 -4 6 -2 17
5 25 8 10 8 15 -1 21 -8 5 -9 3 -4 -6 5 -9 4 -11 -4 -6 -9 6 -9 11 0 23 11 12
14 12 22 -2 6 -11 17 -15 32 -11 22 6 43 -8 44 -29 0 -5 10 -12 22 -13 18 -3
20 0 14 15 -20 50 -37 105 -33 108 2 3 12 -20 22 -51 14 -45 23 -57 47 -66 31
-11 39 -28 13 -28 -12 0 -15 -6 -10 -27 5 -26 5 -27 -6 -5 -13 25 -49 29 -71
7 -8 -8 -17 -11 -20 -8 -9 9 -79 13 -75 5 2 -4 11 -28 22 -54 11 -27 23 -45
29 -41 6 4 8 0 4 -11 -4 -9 -3 -15 2 -12 10 6 32 -39 24 -48 -3 -3 -12 -1 -20
5 -9 9 -13 8 -13 0 0 -6 5 -12 10 -12 6 -1 15 -2 21 -3 16 -2 38 -48 31 -65
-3 -9 -1 -12 6 -7 8 4 10 2 6 -7 -6 -16 31 -84 43 -80 4 2 8 -7 8 -20 0 -13 5
-21 13 -19 8 1 11 -2 7 -8 -3 -5 -1 -19 6 -31 8 -16 8 -20 0 -14 -20 12 0 -49
21 -63 10 -7 16 -18 13 -23 -4 -5 -1 -9 4 -9 6 0 11 -10 11 -22 0 -12 3 -18 7
-15 8 9 32 -23 33 -43 0 -12 -2 -13 -9 -1 -5 7 -14 11 -20 7 -6 -4 -13 5 -17
21 -4 15 -11 32 -15 38 -5 5 -20 24 -34 41 -14 18 -25 35 -25 38 0 4 -9 16
-20 28 -11 12 -20 29 -20 39 0 9 -6 19 -12 22 -15 5 -54 114 -45 124 4 3 7 -1
7 -11 0 -10 5 -14 11 -10 7 4 6 12 -5 23 -15 14 -18 14 -26 1 -10 -16 -12 -14
-14 35 -1 11 -6 19 -13 18 -6 -1 -10 5 -9 15 2 9 -10 34 -26 56 -15 21 -28 43
-28 47 0 20 -56 63 -80 61 l-25 -2 25 12 c14 6 28 10 33 10 4 -1 7 3 7 9 0 6
-6 9 -13 6 -8 -3 -21 9 -31 28 -17 31 -51 40 -40 10 3 -7 1 -16 -4 -19 -6 -3
-8 -16 -4 -28 4 -19 3 -20 -9 -9 -8 8 -15 31 -16 51 -1 21 -10 53 -19 72 -18
32 -19 32 -22 8 -2 -13 1 -26 7 -28 6 -2 11 -8 11 -13 0 -6 -6 -7 -12 -3 -9 5
-9 2 1 -9 9 -11 10 -17 2 -17 -6 0 -11 -17 -12 -37 0 -21 -3 -32 -6 -25 -2 6
-8 10 -12 8 -6 -4 -16 11 -50 84 -6 14 -24 32 -40 41 -28 16 -28 16 -17 -7 7
-15 13 -19 18 -11 4 7 8 10 9 7 0 -3 2 -13 4 -22 2 -9 14 -32 27 -50 13 -18
30 -45 38 -60 7 -16 16 -26 18 -23 5 5 37 -34 37 -45 0 -11 65 -94 66 -84 0 5
4 -1 10 -14 5 -14 13 -20 20 -16 7 4 9 3 6 -4 -4 -5 9 -34 28 -63 19 -30 35
-50 35 -45 0 5 9 -3 21 -18 11 -14 25 -24 29 -21 5 3 7 -3 5 -12 -1 -10 8 -31
21 -46 13 -16 24 -25 24 -22 0 4 16 -15 36 -42 20 -26 43 -55 53 -63 41 -37
102 -110 88 -104 -10 3 -17 9 -17 13 0 4 -31 39 -70 77 -38 38 -70 72 -70 77
0 4 -18 25 -40 46 -42 40 -55 43 -19 5 18 -19 25 -36 28 -66 1 -5 8 -8 17 -8
12 0 15 -6 11 -21 -3 -12 -3 -18 0 -15 11 10 32 -22 36 -55 5 -36 13 -63 28
-91 5 -9 12 -36 15 -60 6 -33 9 -38 15 -23 7 19 8 19 8 -2 1 -30 24 -113 31
-113 3 0 4 18 2 40 -8 76 6 40 18 -47 12 -97 25 -137 40 -128 6 3 10 1 10 -5
0 -11 122 -6 141 5 5 4 9 2 9 -4 0 -9 -47 -24 -66 -20 -5 1 -22 0 -39 -1 -30
-2 -30 -2 -5 -10 25 -8 25 -8 -4 -9 l-29 -1 6 -77 c3 -43 11 -79 16 -81 6 -2
8 -9 5 -14 -5 -7 -2 -8 5 -4 7 5 18 1 25 -10 8 -10 20 -15 30 -11 9 4 16 2 16
-2 0 -17 -25 -18 -48 -3 -12 8 -25 12 -28 9 -3 -3 -9 -63 -13 -134 l-8 -128
-2 126 c-1 123 -2 127 -24 133 -26 6 -34 45 -16 78 8 16 8 19 -1 13 -9 -5 -10
-1 -5 14 4 15 2 21 -9 21 -8 0 -23 11 -34 25 -22 27 -52 31 -112 16 -19 -6
-54 -15 -77 -21 l-43 -11 0 -51 c0 -28 -3 -48 -7 -44 -4 4 -6 25 -4 46 3 44
-4 48 -58 29 -18 -6 -34 -9 -37 -7 -4 4 172 65 207 72 69 14 89 19 85 24 -3 3
4 10 17 16 23 12 37 56 17 56 -6 0 -8 5 -5 10 9 14 -4 52 -16 45 -5 -4 -9 3
-9 14 0 11 -4 22 -9 25 -5 4 -12 24 -16 46 -4 22 -11 40 -16 40 -5 0 -9 7 -9
15 0 8 -4 15 -9 15 -5 0 -8 11 -5 24 3 18 -1 26 -15 31 -10 3 -22 16 -25 28
-3 12 -16 38 -28 57 -12 19 -23 44 -24 55 -3 28 -8 48 -16 60 -7 13 -3 109 6
124 4 6 -2 23 -13 37 -12 15 -21 23 -21 19 0 -4 -10 5 -22 21 -13 16 -23 32
-23 36 0 5 -17 26 -37 48 -21 22 -38 42 -38 45 0 10 -62 84 -69 83 -23 -2 -32
4 -27 18 4 10 -4 30 -18 49 -14 18 -23 35 -21 37 3 3 -10 20 -28 39 -18 19
-41 48 -52 66 -10 18 -23 29 -29 26 -6 -3 -8 -3 -4 2 8 9 -17 57 -48 91 -11
12 -33 48 -48 79 -16 30 -31 53 -34 51 -4 -4 -60 99 -67 124 -6 20 -29 60 -35
60 -4 0 -26 50 -50 110 -24 61 -45 108 -48 105 -3 -3 -23 48 -44 113 -38 116
-40 118 -67 114 -16 -2 -32 2 -40 12 -11 13 -9 21 9 51 19 31 20 39 9 72 -7
21 -14 43 -15 48 -1 6 -12 46 -23 90 -11 44 -24 101 -27 128 -4 30 -12 47 -20
47 -8 0 -14 5 -14 10 0 7 6 7 19 1 12 -7 22 -30 30 -68 6 -32 24 -100 39 -151
24 -80 30 -91 41 -78 9 10 12 31 8 56 -3 23 -1 38 4 34 5 -3 9 9 9 26 0 29 -1
30 -16 15 -15 -15 -18 -14 -31 5 -18 25 -24 71 -12 86 11 14 -73 239 -84 228
-4 -4 -7 0 -7 9 0 39 32 2 55 -63 1 -3 6 -16 12 -30 5 -14 18 -49 28 -77 10
-29 21 -51 23 -48 3 2 24 -43 47 -102 24 -58 47 -108 52 -112 8 -6 54 -99 51
-104 -1 -1 7 -17 17 -34 18 -31 45 -45 45 -23 0 6 -4 10 -10 10 -9 0 -29 59
-36 105 -3 15 0 13 12 -7 8 -16 19 -28 24 -28 5 0 12 -10 16 -22 4 -13 17 -39
30 -59 13 -20 21 -39 18 -41 -2 -3 8 -18 22 -33 15 -16 33 -44 40 -62 8 -18
17 -33 19 -33 9 0 -25 75 -39 85 -7 6 -34 53 -60 105 -25 52 -46 91 -47 85 0
-11 -20 31 -25 54 -1 7 -8 19 -15 25 -9 8 -10 7 -6 -6 7 -20 -9 -25 -16 -5 -3
6 -6 1 -7 -13 l-2 -25 -12 28 c-7 15 -15 24 -19 21 -4 -4 -7 -2 -7 4 0 7 10
12 22 12 17 0 19 3 10 12 -7 7 -12 22 -12 35 0 13 -4 23 -8 23 -9 0 -35 47
-37 65 -1 6 -12 30 -25 55 -13 25 -25 47 -26 50 -1 3 -5 16 -9 28 -5 16 -10
20 -15 12 -5 -9 -10 -5 -15 11 -19 62 -76 179 -99 202 -14 15 -26 25 -26 24 0
-1 7 -20 15 -42 16 -45 19 -69 7 -61 -5 3 -9 -16 -11 -42 -4 -76 -12 -62 -10
18 1 67 -3 81 -30 130 -17 30 -31 52 -31 47 0 -4 -21 14 -46 40 -25 27 -49 47
-54 46 -4 -1 -18 10 -31 25 -18 20 -19 23 -4 11 11 -8 33 -21 49 -29 15 -8 38
-25 50 -38 11 -12 34 -30 50 -38 28 -15 29 -15 23 5 -3 12 0 21 6 21 7 0 5 5
-3 10 -11 7 -11 10 -2 10 7 0 10 5 7 10 -4 6 -11 7 -17 4 -7 -4 -8 -2 -4 5 4
6 12 9 17 6 5 -3 6 1 3 9 -3 9 -11 13 -17 9 -6 -3 -7 -1 -3 5 4 7 2 12 -4 12
-6 0 -9 4 -6 8 3 4 -7 8 -21 8 -15 -1 -28 5 -30 14 -3 11 -2 11 4 3 6 -8 13
-3 22 18 l13 30 33 -63 c18 -34 42 -66 53 -71 12 -6 22 -21 24 -36 4 -31 31
-39 54 -17 19 19 14 28 -47 91 -82 84 -164 175 -164 183 0 4 -6 16 -12 27 -10
17 -15 18 -32 8 -14 -9 -22 -9 -27 -2 -3 6 -13 8 -21 4 -12 -4 -13 -2 -7 7 7
9 0 23 -23 45 -18 17 -33 29 -33 27 0 -3 -6 1 -14 8 -8 7 -13 17 -13 23 1 5
-5 10 -13 11 -45 4 -46 4 -31 13 9 6 10 11 2 15 -6 4 -11 5 -11 2 0 -6 -30 17
-62 47 -22 21 -28 21 -28 1 0 -8 -4 -13 -9 -10 -5 4 -4 16 2 30 11 22 14 23
28 10 8 -8 21 -14 28 -14 7 0 9 -4 6 -10 -3 -5 4 -10 16 -10 19 0 20 2 8 16
-12 15 -11 16 9 10 13 -4 22 -3 22 3 0 5 7 17 16 25 14 14 10 18 -12 15 -4 0
-11 5 -15 13 -7 10 -9 10 -9 0 0 -9 -7 -9 -30 3 -17 9 -28 20 -25 24 3 5 -2
12 -11 15 -24 9 -31 7 -14 -4 9 -6 10 -10 3 -10 -6 0 -19 10 -27 22 -11 15
-16 18 -16 8 0 -12 -2 -12 -9 -2 -11 17 -144 52 -201 52 -33 0 -41 3 -30 10
11 7 1 10 -35 11 -27 1 -54 0 -60 -1 -5 -1 -27 -3 -48 -4 -20 0 -37 -5 -36
-10 1 -14 -27 -27 -44 -20 -9 3 -14 14 -12 25 3 15 -2 19 -21 19 -22 0 -25 -4
-23 -27 0 -11 -39 -21 -90 -22 -39 -1 -43 1 -38 20 5 18 2 20 -16 15 -12 -3
-32 -6 -44 -6 -16 0 -23 -6 -23 -19 0 -17 -6 -19 -40 -16 -22 2 -42 -1 -45 -6
-4 -5 9 -10 27 -10 33 -1 33 -1 -7 -10 -22 -4 -64 -9 -92 -10 -29 -1 -53 -5
-53 -9 0 -4 -20 -11 -45 -14 -24 -4 -48 -12 -51 -18 -4 -6 -3 -8 4 -4 6 3 13
2 17 -4 3 -5 0 -10 -8 -10 -8 0 -29 -3 -46 -6 -27 -6 -30 -4 -25 11 4 10 14
15 25 12 10 -3 16 0 13 7 -2 6 9 26 25 45 17 19 29 37 27 40 -2 3 5 14 16 24
10 9 18 15 18 12 0 -3 18 6 39 19 22 14 51 28 65 32 14 3 23 10 20 15 -3 5 0
9 6 9 6 0 15 11 20 25 5 14 15 25 21 25 7 0 9 9 5 25 -6 23 -2 28 41 46 55 24
54 24 111 34 23 4 42 11 42 16 0 5 33 9 73 9 50 0 67 3 57 10 -11 7 -7 10 18
10 20 0 31 -4 27 -10 -3 -5 -1 -10 4 -10 6 0 11 4 11 9 0 16 33 17 115 3 44
-7 88 -13 98 -13 12 0 17 -5 13 -15 -3 -8 0 -14 6 -14 6 0 8 -3 5 -6 -4 -4
-12 -3 -19 3 -7 5 -26 8 -43 8 -16 -1 -51 1 -77 5 -29 4 -48 3 -48 -3 0 -5
-14 -7 -30 -5 -17 3 -27 1 -23 -3 4 -4 60 -10 123 -13 128 -8 163 -14 154 -27
-3 -5 -10 -7 -15 -4 -5 4 -9 -1 -9 -9 0 -10 6 -13 17 -9 11 4 14 3 9 -5 -4 -7
-15 -12 -24 -12 -9 0 -12 -3 -6 -8 19 -17 194 -39 332 -41 30 -1 42 -5 42 -16
0 -8 5 -15 10 -15 6 0 10 -4 10 -10 0 -5 -8 -10 -17 -10 -14 0 -14 -3 -5 -12
10 -10 14 -10 21 0 6 9 25 12 69 8 73 -6 82 -10 82 -41 0 -13 6 -26 13 -29 6
-3 2 -4 -10 -1 -13 3 -33 7 -45 10 -13 3 1 -7 30 -21 40 -19 57 -23 65 -15 8
8 6 11 -7 11 -13 0 -16 5 -11 18 8 20 8 20 6 54 0 15 -8 33 -16 42 -8 8 -15
19 -15 25 0 6 -7 11 -15 11 -8 0 -23 12 -32 27 -25 39 -51 63 -66 63 -7 0 -22
7 -33 15 -18 15 -17 15 19 11 20 -2 37 0 37 4 0 10 -48 22 -60 15 -5 -3 -19 0
-30 7 -17 11 -22 11 -30 -2 -9 -13 -12 -13 -21 3 -5 9 -19 17 -29 17 -11 0
-20 5 -20 11 0 5 4 8 9 4 5 -3 12 -2 14 3 3 4 -13 7 -36 7 -52 -2 -74 5 -57
15 7 4 37 6 66 3 53 -5 54 -4 54 21 0 15 -6 29 -13 32 -7 2 -13 12 -14 22 -5
59 -30 82 -90 83 -39 1 -43 2 -23 9 14 4 22 9 18 10 -5 1 -12 4 -18 5 -5 1
-11 3 -12 4 -2 2 -13 4 -26 7 -12 2 -34 11 -47 20 -15 9 -37 14 -54 12 -17 -2
-28 -1 -25 4 3 4 -14 11 -36 14 -24 4 -37 10 -30 14 7 4 8 10 4 12 -5 3 -3 3
4 1 7 -1 23 2 34 8 15 8 19 8 14 0 -4 -6 -1 -11 7 -11 7 0 14 7 14 16 0 13 -8
15 -39 10 -22 -4 -45 -3 -51 1 -34 21 -345 24 -442 4 -72 -15 -115 -30 -115
-42 0 -5 -3 -8 -7 -8 -5 1 -17 1 -28 0 -14 -1 -16 -4 -7 -9 8 -6 -1 -13 -30
-22 -24 -7 -59 -21 -78 -31 -19 -9 -53 -24 -75 -33 -22 -8 -33 -15 -25 -16 9
-1 6 -5 -7 -10 -28 -12 -30 -43 -4 -76 16 -20 21 -22 28 -10 9 16 160 96 182
96 8 0 11 3 7 7 -26 26 338 73 579 74 16 0 199 -31 210 -35 18 -8 -49 -6 -150
5 -145 15 -292 11 -439 -11 -71 -11 -131 -20 -133 -20 -2 0 -1 -4 2 -10 3 -5
-2 -10 -13 -10 -22 0 -152 -52 -182 -73 -11 -8 -17 -17 -13 -20 3 -4 0 -7 -8
-7 -8 0 -30 -11 -49 -25 -23 -17 -28 -25 -17 -25 31 0 17 -19 -19 -26 l-36 -7
7 -81 c4 -44 11 -82 16 -84 12 -5 11 -72 -1 -72 -5 0 -10 8 -10 18 0 10 -3 22
-7 26 -4 4 -8 26 -9 49 -3 48 -23 117 -36 117 -4 0 -8 9 -8 19 0 11 -4 23 -10
26 -5 3 -10 0 -10 -7 0 -9 -3 -9 -10 2 -7 11 -10 7 -10 -18 0 -36 -21 -52 -45
-32 -21 18 -19 40 10 82 26 38 32 72 15 83 -5 3 -27 -3 -49 -15 -51 -25 -104
-27 -99 -3 2 11 21 20 56 28 55 13 77 24 49 26 -9 1 -21 3 -27 4 -5 1 -17 3
-26 4 -8 0 -13 5 -10 10 9 13 -86 32 -100 20 -14 -12 -73 -8 -81 5 -3 5 -8 24
-10 43 -3 31 -2 33 26 33 16 0 33 5 36 11 9 13 4 18 -26 23 -13 2 -26 5 -29 6
-3 1 5 5 18 11 13 5 20 13 17 19 -3 5 2 10 12 10 15 0 16 2 3 10 -12 8 -11 10
6 10 12 0 27 7 34 15 7 8 16 12 21 9 5 -3 9 0 9 6 0 7 8 9 20 5 16 -5 22 0 31
21 8 22 12 25 19 14 5 -8 7 -17 4 -21 -2 -4 5 -5 16 -2 11 3 20 9 20 14 0 5
-7 6 -15 3 -8 -4 -15 -1 -15 5 0 6 9 11 20 11 11 0 20 -5 20 -11 0 -5 5 -7 11
-3 6 3 8 17 4 31 -4 19 -1 26 15 30 11 3 20 10 20 15 0 5 4 7 10 3 5 -3 18 2
30 12 11 10 25 19 30 19 6 1 15 2 21 3 5 0 7 6 4 11 -4 6 7 10 24 10 37 0 41
-15 6 -24 -14 -4 -34 -15 -45 -26 -11 -11 -27 -20 -35 -20 -8 0 -15 -5 -15
-11 0 -7 -10 -9 -24 -5 -14 3 -28 1 -32 -6 -4 -6 -3 -8 4 -5 6 5 8 -1 4 -15
-4 -15 -2 -19 7 -14 7 5 10 11 7 14 -13 12 271 91 334 93 29 0 32 2 15 10 -14
6 -7 8 25 4 32 -4 39 -2 25 4 -19 9 -18 10 5 10 14 1 47 8 74 16 67 20 81 18
26 -5 l-45 -19 40 -2 c31 -1 25 -3 -27 -9 -85 -10 -271 -75 -288 -100 -3 -5
-31 -20 -63 -35 -49 -24 -83 -56 -79 -75 0 -3 -6 -4 -14 -2 -8 2 -14 -4 -14
-13 0 -9 5 -13 10 -10 6 3 10 -3 10 -15 0 -12 4 -19 10 -15 5 3 8 -9 6 -30 -2
-19 0 -32 5 -29 5 3 16 -2 25 -10 8 -9 25 -16 37 -16 22 1 101 39 81 40 -6 0
-11 7 -11 15 0 10 11 15 32 15 18 0 45 10 61 22 16 12 23 15 16 6 -12 -15 -9
-15 25 -6 21 5 61 14 90 20 42 8 51 13 45 26 -5 15 -3 15 11 4 13 -12 29 -12
89 -1 82 14 332 18 423 6 33 -4 81 -10 108 -13 l48 -7 -10 27 c-6 14 -7 26 -3
27 4 1 -6 5 -23 9 -16 5 -61 18 -100 30 -81 24 -327 37 -319 16 2 -6 -9 -19
-25 -29 -33 -20 -41 -21 -41 -7 0 6 6 10 14 10 9 0 13 7 11 20 -2 11 1 20 7
20 5 0 8 -7 4 -15 -3 -8 -1 -15 4 -15 18 0 11 38 -7 42 -11 3 -5 6 14 9 21 4
30 2 27 -5 -3 -6 1 -3 9 7 8 9 24 17 36 17 11 0 21 5 21 11 0 8 19 10 60 6 33
-3 63 -1 66 4 3 5 11 9 17 9 9 0 9 -2 0 -8 -9 -6 -7 -11 7 -20 16 -10 20 -10
20 2 0 16 27 29 34 17 3 -5 2 -11 -1 -15 -27 -26 28 -56 132 -71 57 -9 136
-35 130 -44 -2 -5 7 -13 20 -19 14 -7 25 -16 25 -22 0 -13 -88 -3 -107 12 -9
8 -13 6 -13 -6 0 -10 9 -16 25 -16 14 0 25 -5 25 -11 0 -6 9 -9 20 -6 10 3 20
2 22 -2 7 -15 193 -94 255 -108 13 -3 20 -9 17 -14 -3 -5 3 -9 13 -9 11 0 25
-6 32 -12 11 -10 13 -10 7 0 -9 15 50 17 90 2 22 -9 31 -8 43 5 14 13 11 15
-24 16 -39 1 -39 2 -10 9 l30 8 -35 2 c-19 1 -38 2 -42 1 -5 0 -8 4 -8 10 0 8
-4 8 -15 -1 -8 -6 -20 -10 -27 -7 -8 4 -7 6 5 6 28 1 19 15 -22 34 -21 10 -41
27 -44 38 -4 14 -10 18 -19 13 -10 -6 -10 -4 1 9 12 15 11 17 -6 17 -11 0 -20
6 -20 14 0 10 7 12 26 6 48 -14 121 -54 111 -60 -6 -4 9 -12 32 -19 24 -7 58
-19 76 -27 17 -7 32 -11 32 -8 0 9 -61 64 -70 64 -5 0 -15 9 -23 20 -8 11 -17
17 -20 13 -4 -3 -7 -1 -7 6 0 7 -3 10 -8 7 -4 -2 -25 4 -47 14 -22 11 -46 19
-52 20 -7 0 -13 4 -13 9 0 5 -21 12 -47 17 -27 4 -50 8 -53 8 -3 1 -11 5 -18
10 -7 4 -16 5 -19 2 -3 -3 -11 -2 -17 3 -6 4 -36 16 -66 26 -30 10 -57 21 -60
25 -5 6 -135 71 -152 75 -5 2 -17 3 -29 4 -11 0 -17 6 -14 11 3 6 2 10 -4 10
-6 0 -8 6 -6 13 3 7 -15 22 -45 36 -27 13 -50 27 -50 32 0 26 -123 34 -285 17z
m-545 -78 c-14 -4 -18 -9 -10 -9 8 -1 0 -10 -18 -19 -18 -10 -30 -21 -26 -25
4 -4 -2 -7 -14 -7 -12 0 -37 -9 -56 -19 -19 -11 -37 -17 -40 -14 -3 4 -6 2 -6
-4 0 -6 -8 -14 -17 -17 -31 -11 -63 -33 -57 -38 3 -3 1 -9 -5 -13 -6 -3 -11
-1 -11 6 0 9 -4 8 -12 -3 -7 -8 -20 -18 -29 -21 -12 -4 -15 0 -11 20 4 22 2
24 -17 18 -11 -3 -21 -2 -21 3 0 13 46 42 67 42 11 0 14 3 7 10 -10 10 -102
-17 -149 -43 -23 -13 -50 -19 -40 -9 4 4 10 7 13 7 4 1 25 10 47 22 22 11 42
21 45 21 3 0 18 5 33 11 16 6 33 11 38 11 6 0 8 4 5 9 -3 5 7 11 22 14 15 3
63 15 107 25 82 21 125 29 160 30 15 0 14 -2 -5 -8z m-794 -399 c-3 -5 -21
-12 -40 -15 -19 -4 -37 -13 -40 -21 -3 -8 -16 -15 -28 -15 -19 0 -20 -2 -8
-10 13 -9 13 -10 0 -11 -8 -1 -18 -1 -22 0 -5 0 -8 -3 -8 -9 0 -5 -9 -10 -20
-10 -11 0 -20 -7 -20 -15 0 -8 -8 -16 -17 -16 -10 -1 -2 -5 17 -9 35 -7 35 -7
-18 -15 -35 -5 -49 -11 -40 -16 10 -6 8 -9 -7 -9 -43 -1 -165 -53 -165 -70 0
-6 -5 -10 -11 -10 -5 0 -7 5 -3 12 4 7 3 8 -4 4 -18 -11 -14 -26 6 -26 22 0
-35 -31 -64 -34 -26 -4 -80 -43 -100 -73 -8 -13 -19 -21 -23 -18 -5 3 -46 -34
-92 -83 -73 -77 -95 -92 -31 -20 13 14 24 29 23 32 -1 3 1 6 4 7 2 0 19 14 37
32 55 52 149 132 156 132 13 1 47 24 44 30 -6 13 93 79 114 77 13 -2 21 3 21
13 0 8 -4 15 -9 15 -4 0 -8 -5 -8 -11 0 -5 -5 -7 -10 -4 -6 4 -1 15 14 26 33
26 128 69 138 63 4 -3 18 -2 29 1 16 5 18 10 10 18 -9 9 -14 8 -21 -3 -7 -11
-10 -11 -10 -2 0 20 119 70 168 71 24 1 41 -3 38 -8z m-205 -249 c-6 -2 -9 -8
-5 -13 3 -5 -1 -9 -8 -9 -7 0 -31 -16 -53 -36 -22 -20 -35 -33 -28 -30 6 3 14
0 16 -6 4 -9 6 -7 6 3 2 35 61 62 61 28 0 -11 -4 -18 -9 -15 -5 3 -12 -2 -15
-11 -6 -15 -9 -15 -16 -3 -7 11 -10 8 -15 -13 -4 -15 -17 -33 -29 -39 -20 -11
-20 -10 -3 9 19 22 22 33 7 33 -24 0 -98 -74 -106 -104 -3 -14 -9 -25 -13 -24
-15 3 -48 -17 -72 -44 -18 -19 -29 -25 -34 -18 -5 8 -11 8 -21 -1 -7 -6 -12
-15 -9 -19 2 -4 -16 -27 -40 -51 -25 -24 -45 -48 -45 -52 0 -5 -11 -23 -25
-41 -14 -18 -25 -37 -25 -42 0 -5 -11 -19 -23 -31 -13 -12 -38 -50 -55 -85
-17 -35 -32 -58 -32 -53 -1 9 -59 -108 -64 -130 -12 -48 -19 -64 -25 -60 -6 3
-51 -114 -56 -145 -7 -40 -31 -97 -37 -87 -5 8 -8 7 -8 -4 0 -23 -77 -248 -90
-264 -6 -7 -13 -21 -15 -31 -12 -52 -69 -230 -75 -234 -4 -3 -11 -16 -15 -30
-7 -23 -6 -24 9 -11 17 15 96 171 96 191 0 6 4 9 8 6 7 -4 40 49 47 74 7 25
40 78 47 74 7 -4 12 10 6 19 -1 1 11 22 26 46 16 24 29 50 30 57 3 17 16 31
16 17 0 -15 -79 -181 -80 -168 0 6 -21 -30 -45 -80 -25 -49 -45 -85 -45 -80 0
6 -20 -30 -45 -80 -24 -49 -44 -85 -45 -80 -1 18 -82 -168 -88 -204 -4 -29 -7
-32 -13 -16 -7 19 -8 19 -8 0 -1 -31 -76 -247 -83 -240 -3 4 -9 -9 -13 -27 -3
-18 -13 -48 -21 -66 -9 -18 -17 -40 -19 -50 -2 -9 -8 -30 -14 -45 -15 -39 -14
-73 5 -109 l16 -30 15 28 c9 18 17 69 20 132 3 56 8 100 11 97 3 -3 11 0 18 6
8 6 25 8 40 5 24 -6 26 -10 21 -52 -2 -26 -10 -50 -17 -54 -19 -11 -24 -93
-10 -143 12 -40 16 -44 46 -43 32 2 61 16 33 16 -8 1 10 10 40 20 30 11 58 23
63 28 4 4 17 53 29 109 12 56 25 100 29 98 4 -3 10 12 14 33 3 20 12 64 20 97
12 50 14 54 15 25 0 -34 -36 -196 -39 -175 -1 6 -12 -33 -24 -85 -13 -52 -19
-96 -15 -98 4 -2 1 -16 -7 -31 -8 -16 -19 -55 -26 -87 -6 -33 -14 -61 -18 -64
-13 -9 -38 -164 -36 -222 0 -32 -2 -58 -6 -58 -15 0 -26 -65 -35 -195 -4 -66
-9 -92 -14 -75 -4 14 -7 -35 -8 -108 -1 -119 1 -132 14 -118 8 8 16 34 16 58
1 24 3 35 6 25 2 -9 9 -15 14 -12 5 4 9 1 9 -4 0 -6 -6 -11 -12 -12 -10 0 -10
-2 0 -6 6 -2 10 -9 6 -14 -3 -5 2 -12 10 -15 9 -3 16 -10 16 -16 0 -5 -4 -7
-8 -4 -4 2 -14 1 -22 -4 -12 -7 -15 -35 -14 -132 0 -101 5 -143 28 -233 15
-60 34 -124 41 -142 15 -36 15 -35 15 -59 0 -8 4 -13 9 -10 10 7 26 -72 17
-81 -3 -4 -6 6 -6 21 0 16 -4 25 -10 21 -5 -3 -10 -2 -10 4 0 6 -19 66 -21 66
-1 0 -50 185 -53 195 -2 8 -7 39 -11 67 -4 29 -11 51 -15 48 -4 -3 -10 14 -14
37 -4 22 -10 46 -13 51 -3 6 -7 47 -8 91 -4 157 -5 162 -15 146 -7 -11 -10 -7
-10 18 0 18 4 31 9 28 11 -7 21 42 21 99 0 77 13 167 21 153 6 -8 9 3 9 30 0
23 1 45 3 50 1 4 -10 8 -25 10 -26 3 -33 12 -29 36 4 20 -10 57 -19 51 -6 -4
-10 9 -10 29 0 19 -5 47 -12 61 -13 29 -49 35 -41 7 3 -12 -1 -19 -11 -19 -9
0 -16 7 -17 16 -1 21 -16 -24 -24 -73 -3 -21 -8 -36 -11 -34 -2 3 0 29 6 59 5
30 12 74 15 99 5 39 4 42 -7 25 -7 -11 -13 -23 -13 -27 0 -5 -2 -7 -5 -5 -3 1
-17 -9 -30 -21 -31 -30 -75 -53 -84 -45 -14 14 -4 41 19 51 14 6 25 17 25 24
0 9 -3 10 -8 2 -4 -6 -17 -16 -28 -22 -26 -14 -32 -40 -44 -214 -10 -142 -3
-331 12 -322 13 8 69 -16 62 -27 -3 -5 2 -9 10 -9 11 0 16 -9 16 -28 0 -26 -3
-28 -30 -24 -17 2 -33 8 -36 13 -8 14 -24 11 -20 -3 3 -7 12 -52 22 -100 9
-48 20 -85 25 -83 4 3 11 -9 14 -27 10 -46 76 -222 86 -228 9 -6 90 -180 84
-180 -4 0 -48 79 -50 90 -2 10 -28 55 -36 60 -10 7 -89 209 -89 227 0 7 -4 13
-9 13 -11 0 -58 163 -60 211 -1 11 -9 14 -30 11 -35 -5 -43 6 -35 47 5 21 12
30 23 29 18 -3 19 19 11 227 -3 61 -2 126 2 145 16 75 25 150 18 150 -5 0 -10
-7 -14 -15 -7 -20 -26 -19 -26 0 0 9 11 20 23 24 21 8 26 22 42 116 10 58 21
101 25 95 4 -7 10 12 14 41 5 38 4 55 -4 57 -9 3 -8 7 1 13 10 6 5 10 -17 15
-30 6 -32 8 -30 53 1 43 3 46 30 49 25 3 28 1 24 -16 -4 -16 -2 -19 10 -15 12
5 14 1 10 -15 -13 -49 12 -7 29 48 9 32 21 56 25 54 7 -5 8 -1 8 21 0 3 11 28
25 55 14 28 23 50 20 50 -7 0 25 63 35 70 4 3 26 47 47 97 22 51 42 90 45 88
5 -6 77 210 79 236 0 12 1 12 6 -1 4 -8 12 7 20 35 7 28 15 55 17 60 1 6 11
37 21 70 10 33 23 63 29 67 6 5 7 8 1 8 -6 0 -5 3 1 8 11 7 94 255 94 282 0
13 1 13 10 0 8 -13 10 -12 10 4 0 31 73 236 82 230 4 -3 8 2 8 10 0 20 69 166
79 166 4 0 20 25 36 56 16 31 37 61 47 67 10 7 18 15 18 20 0 12 80 131 91
135 5 2 25 28 45 58 20 30 40 54 45 54 4 0 14 11 21 24 15 28 157 186 166 184
18 -2 30 4 61 32 18 17 36 28 41 25 5 -3 12 0 16 7 6 9 9 9 12 -2 3 -8 0 -16
-7 -18z m668 -169 c0 -11 -3 -13 -6 -6 -3 10 -8 10 -19 -1 -8 -8 -14 -20 -14
-26 0 -6 -4 -9 -9 -5 -5 3 -15 -1 -23 -8 -7 -8 -23 -19 -36 -26 -23 -12 -32
-37 -9 -26 6 4 3 -1 -7 -9 -11 -9 -16 -16 -12 -16 4 0 -2 -13 -13 -29 -12 -16
-26 -52 -33 -80 -7 -33 -14 -47 -20 -39 -5 9 -8 6 -8 -9 0 -30 -1 -34 -12 -63
-15 -39 -58 -246 -59 -282 0 -28 -2 -30 -9 -13 -7 14 -9 2 -9 -45 -1 -36 -5
-96 -10 -134 -5 -38 -7 -76 -6 -85 2 -9 4 -26 4 -38 1 -13 5 -23 11 -23 5 0 9
3 9 8 -3 19 2 33 10 28 9 -6 25 48 22 71 -1 8 5 10 16 6 15 -5 16 -3 6 8 -18
18 -16 30 3 22 14 -5 16 -2 10 23 -5 21 -4 25 4 14 6 -10 10 -11 10 -2 0 16
18 15 36 -3 15 -15 10 -60 -5 -50 -13 8 -31 -44 -36 -104 -13 -151 -13 -161 1
-161 8 0 15 10 15 23 1 12 2 27 4 32 1 6 3 37 4 70 1 40 4 55 10 46 7 -10 11
-1 16 32 4 26 11 47 15 47 5 0 12 15 15 33 4 17 13 35 19 39 7 5 7 8 -3 8 -11
0 -11 3 -1 15 7 8 19 15 26 15 10 0 14 14 14 49 0 29 6 53 14 60 7 6 16 26 19
44 15 93 67 147 67 70 0 -77 11 -20 16 78 4 111 13 145 15 58 1 -91 -2 -140
-16 -213 -7 -38 -12 -77 -10 -88 2 -10 0 -18 -6 -18 -5 0 -9 6 -10 13 0 6 -7
-12 -15 -41 -8 -30 -12 -58 -8 -63 3 -5 1 -9 -5 -9 -5 0 -19 -25 -30 -55 -12
-31 -30 -68 -42 -84 -11 -15 -22 -34 -23 -42 -7 -35 -18 -76 -26 -94 -5 -11
-14 -37 -21 -57 -7 -20 -16 -35 -21 -32 -5 3 -5 10 -2 16 4 7 2 8 -4 4 -7 -4
-10 -17 -8 -29 2 -12 0 -26 -4 -32 -10 -14 -60 -167 -60 -185 0 -8 16 18 35
58 19 40 35 85 35 100 0 18 3 23 8 14 6 -9 12 -5 20 13 7 14 12 33 12 41 0 9
7 32 16 52 9 21 22 52 30 70 8 18 14 39 14 47 0 8 3 15 8 15 9 0 41 58 46 85
7 34 39 94 48 89 4 -3 8 3 8 13 0 10 7 32 16 48 28 54 54 149 55 205 0 40 3
50 9 35 9 -20 9 -20 9 0 1 24 28 50 62 60 35 10 70 35 65 44 -6 10 23 38 44
43 21 5 39 22 32 32 -3 5 0 6 6 2 12 -7 52 10 62 25 9 14 154 24 146 11 -5 -8
3 -12 26 -12 18 0 61 -9 95 -20 50 -15 68 -17 93 -8 18 6 53 8 83 4 60 -8 188
-47 182 -55 -2 -4 30 -24 70 -45 41 -22 72 -42 70 -46 -3 -4 3 -14 12 -21 9
-8 17 -12 18 -9 1 3 22 -13 46 -35 24 -22 43 -41 42 -42 -2 -2 0 -3 4 -2 3 0
10 -6 15 -14 4 -9 16 -13 26 -10 11 2 26 -3 36 -12 9 -9 16 -14 16 -10 0 4 7
0 15 -9 8 -8 15 -17 15 -20 0 -4 14 -25 30 -48 17 -22 30 -47 30 -55 0 -7 4
-13 10 -13 12 0 42 -70 36 -86 -5 -12 28 -44 45 -44 7 0 8 7 4 18 -4 9 -8 24
-10 32 -5 24 -37 104 -47 116 -5 7 -10 21 -13 32 -3 15 1 19 16 15 17 -5 18
-3 9 22 -12 31 -40 74 -40 61 0 -5 -13 9 -29 30 -29 40 -71 82 -71 71 0 -4
-15 9 -34 27 -40 40 -116 76 -162 76 -26 0 -32 4 -28 15 4 10 20 15 48 15 26
0 36 -3 28 -9 -10 -6 -7 -10 12 -15 14 -3 27 -5 28 -4 2 1 24 -12 50 -30 26
-18 53 -32 60 -32 10 0 9 -3 -2 -10 -13 -9 -13 -10 1 -10 21 0 177 -167 169
-182 -1 -2 4 -16 11 -31 9 -20 15 -24 21 -15 5 9 8 7 8 -8 0 -11 5 -25 12 -32
7 -7 9 -12 5 -12 -4 0 3 -19 15 -42 12 -24 23 -47 24 -53 10 -39 32 -84 37
-78 4 3 7 -3 7 -14 0 -14 10 -26 29 -34 21 -9 27 -17 20 -25 -6 -7 -2 -33 11
-74 11 -34 20 -74 21 -89 0 -23 1 -24 9 -6 6 14 7 6 5 -25 -3 -25 -7 -101 -11
-170 -9 -173 -9 -175 -41 -263 -20 -57 -29 -73 -35 -60 -5 13 -7 9 -7 -15 -1
-18 -8 -49 -16 -69 -8 -19 -15 -43 -14 -52 0 -10 3 -8 10 7 11 29 29 20 30
-16 1 -15 5 0 10 33 10 75 12 85 27 112 7 12 12 31 12 42 0 11 7 39 16 62 12
29 19 37 25 27 6 -9 9 -7 9 9 0 32 10 53 26 53 8 0 14 -3 15 -7 0 -5 2 -15 4
-23 1 -8 6 -35 9 -60 4 -25 11 -63 16 -85 5 -22 12 -71 16 -109 4 -46 9 -64
15 -55 6 10 9 4 10 -21 3 -58 6 -83 18 -120 20 -62 9 -147 -14 -110 -4 6 -10
8 -15 5 -4 -2 -19 4 -33 15 -18 14 -40 20 -77 20 -42 0 -51 3 -46 15 3 10 -1
15 -12 15 -9 0 -27 3 -39 6 -15 4 -22 1 -26 -13 -4 -15 -5 -15 -6 4 -1 25 -25
33 -60 21 -14 -5 -28 -4 -35 1 -7 6 -46 7 -101 1 -52 -4 -91 -4 -93 1 -5 13
-55 10 -74 -5 -10 -7 -14 -17 -10 -21 4 -5 -1 -5 -11 -2 -10 4 -16 3 -12 -2 7
-12 -41 -68 -50 -59 -4 4 2 17 14 29 20 21 27 39 16 39 -6 0 -44 -31 -59 -48
-6 -7 -19 -22 -28 -32 -9 -10 -13 -22 -10 -26 4 -5 0 -3 -9 4 -19 14 -46 7
-46 -13 0 -15 107 -32 126 -20 6 3 11 1 11 -4 0 -6 9 -2 20 9 11 11 28 20 37
20 9 0 14 3 10 6 -7 7 15 34 24 28 3 -2 21 1 40 7 39 13 258 19 265 8 2 -4 44
-6 93 -3 89 3 166 -11 141 -26 -9 -6 -7 -10 6 -14 11 -3 22 -6 27 -6 4 0 27
-11 51 -24 44 -24 65 -24 45 0 -17 21 -51 183 -55 268 -2 43 -9 85 -15 92 -6
7 -9 21 -8 31 4 23 -10 76 -21 83 -5 3 -12 38 -15 77 -3 40 -12 88 -20 107
-22 53 -17 67 7 21 11 -22 24 -42 28 -45 8 -6 83 -228 84 -253 1 -9 5 -17 10
-16 5 0 16 -15 24 -33 11 -24 16 -72 16 -180 1 -82 -3 -148 -7 -148 -10 0 -2
-44 23 -120 11 -34 16 -75 14 -107 -2 -29 1 -55 6 -58 6 -3 10 -15 10 -25 0
-12 5 -17 14 -14 11 4 10 14 -5 55 -21 54 -24 73 -10 65 5 -3 12 -22 15 -41 4
-20 11 -33 16 -30 6 3 7 -1 4 -9 -3 -9 -1 -16 5 -16 6 0 11 -7 11 -15 0 -8 -9
-15 -19 -15 -28 0 -29 -7 -10 -80 11 -41 18 -56 19 -40 2 19 4 16 12 -15 5
-22 10 -47 11 -57 5 -28 40 -98 49 -98 5 0 7 -3 5 -7 -7 -12 12 -55 21 -49 8
5 32 -34 38 -60 1 -6 10 -21 20 -33 11 -12 22 -31 25 -44 3 -12 11 -21 17 -20
7 2 12 -3 12 -11 0 -8 -7 -13 -16 -12 -9 0 -18 -5 -20 -12 -1 -7 0 -8 3 -2 3
6 11 6 25 -1 16 -8 19 -8 13 1 -5 8 -3 11 4 9 7 -3 12 -8 11 -13 -1 -4 5 -13
13 -19 17 -15 32 -51 16 -41 -7 4 -10 -3 -9 -17 1 -13 1 -26 0 -29 -1 -3 -3
-16 -5 -30 -1 -14 -6 -34 -10 -45 -6 -17 -5 -17 9 3 10 12 19 30 21 40 5 26
34 88 35 77 1 -5 8 17 15 50 27 119 9 392 -27 418 -10 6 -9 8 2 4 28 -7 43
-95 44 -257 1 -85 -2 -168 -6 -185 -14 -59 -20 -75 -29 -69 -5 3 -9 -1 -9 -8
0 -15 -79 -178 -80 -163 0 5 -7 -1 -16 -13 -8 -12 -19 -20 -24 -17 -5 3 -12 0
-16 -6 -4 -8 -3 -9 4 -5 17 10 15 1 -8 -46 -11 -23 -20 -49 -21 -57 -1 -9 -5
-5 -9 9 -8 24 -8 24 -9 -6 -1 -19 -11 -41 -27 -58 -15 -14 -28 -36 -30 -49 -5
-36 -30 -98 -37 -91 -12 12 -28 -46 -18 -64 11 -20 7 -21 58 11 52 33 73 34
73 5 0 -17 -3 -19 -9 -9 -13 21 -28 -67 -30 -183 -1 -55 -5 -104 -8 -109 -3
-5 1 -13 8 -18 7 -4 11 -10 8 -13 -3 -3 -16 4 -28 16 -20 17 -22 28 -18 66 3
28 1 39 -4 31 -12 -19 -11 -96 3 -144 11 -41 12 -71 4 -160 -2 -27 -5 -66 -6
-85 -2 -32 -3 -33 -10 -10 -7 21 -8 19 -9 -17 -1 -23 -5 -44 -10 -48 -5 -3
-12 -19 -16 -35 -8 -34 -52 -126 -60 -122 -13 6 -26 1 -20 -8 3 -5 2 -10 -3
-10 -6 0 -8 -10 -5 -22 4 -18 3 -20 -6 -8 -9 13 -12 13 -28 -2 -16 -17 -16
-18 0 -18 10 0 15 -5 12 -10 -4 -6 -10 -8 -13 -6 -10 6 -74 -7 -70 -14 5 -9
-40 -61 -75 -88 -17 -14 -24 -22 -14 -18 11 3 16 2 12 -4 -3 -6 -1 -10 5 -10
6 0 8 -5 4 -12 -6 -9 -9 -9 -12 0 -6 18 -30 14 -52 -8 -11 -11 -20 -17 -20
-14 0 4 -8 -4 -19 -17 -10 -13 -18 -27 -17 -31 1 -7 -49 -48 -59 -48 -4 0 -19
-9 -35 -20 -24 -17 -50 -26 -85 -29 -5 -1 -4 -5 2 -9 9 -5 1 -12 -23 -21 -24
-9 -34 -17 -30 -28 4 -11 1 -13 -15 -8 -12 4 -45 -2 -77 -14 -31 -11 -66 -22
-77 -24 -17 -4 -16 -5 5 -7 23 -2 23 -3 -5 -9 -40 -9 -92 -2 -74 10 9 5 -13 9
-56 10 -38 1 -83 3 -100 5 -16 1 -56 -2 -88 -7 -48 -8 -60 -7 -73 6 -8 8 -20
15 -26 15 -5 0 -7 8 -4 18 5 14 4 14 -9 -2 -8 -11 -15 -15 -15 -9 0 14 -87 15
-114 1 -20 -11 -20 -10 -6 8 14 18 14 18 -6 1 -11 -9 -36 -17 -56 -17 -19 0
-48 -7 -64 -15 -40 -20 -104 -29 -104 -16 0 6 -8 11 -17 10 -10 0 -13 -3 -6
-5 18 -8 -16 -44 -34 -37 -12 5 -12 7 -1 14 10 7 9 9 -4 9 -10 0 -18 5 -18 10
0 6 -18 10 -41 10 -27 0 -38 -4 -33 -11 7 -11 -1 -11 -196 10 -115 12 -283 44
-275 53 7 6 -71 22 -79 16 -7 -6 -46 34 -41 43 3 4 0 11 -6 15 -8 5 -9 3 -4
-6 6 -10 4 -12 -11 -6 -10 4 -30 10 -44 13 -13 2 -27 8 -30 13 -3 5 -25 12
-48 16 -23 4 -42 9 -42 13 0 3 -13 12 -30 19 -16 8 -30 21 -30 30 0 15 -2 15
-10 2 -8 -12 -10 -11 -10 7 0 12 -17 39 -38 60 -21 21 -39 41 -40 46 -1 4 -5
8 -9 8 -25 5 -66 85 -78 152 -7 39 -14 64 -14 55 -1 -25 -20 -22 -30 5 -19 45
-24 63 -28 87 -2 13 -9 27 -14 31 -6 3 -9 10 -8 15 1 5 0 12 -1 17 -3 8 -3 8
-14 56 -6 25 -11 30 -17 20 -7 -12 -9 -12 -9 0 0 8 -8 33 -19 55 -40 88 -73
222 -52 215 7 -3 12 -8 11 -13 -1 -5 3 -12 9 -16 6 -3 13 -17 16 -29 5 -29 24
-53 36 -45 5 3 9 -2 9 -10 0 -9 5 -16 10 -16 6 0 11 -12 11 -27 1 -18 3 -21 6
-10 7 26 -16 87 -33 87 -12 0 -16 12 -13 36 0 3 -11 21 -26 40 -14 19 -28 42
-30 52 -5 27 -31 72 -38 66 -8 -8 -17 35 -14 68 2 32 21 36 50 11 19 -17 20
-17 14 7 -12 58 -16 71 -23 82 -4 6 -8 27 -9 47 -3 49 -14 83 -26 76 -5 -4 -9
0 -9 7 0 7 -7 27 -16 43 -22 42 -64 159 -64 179 0 10 -4 14 -10 11 -5 -3 -10
0 -10 7 -1 7 -7 59 -14 116 -12 100 -12 104 8 119 14 11 16 14 4 10 -26 -9
-61 64 -48 99 6 14 7 30 4 36 -4 5 -8 53 -9 106 -2 54 -7 115 -13 137 -6 22
-13 137 -17 255 -6 207 -13 281 -17 169 l-1 -54 -6 45 c-6 43 -7 42 -13 -30
-4 -41 -5 -143 -3 -226 2 -83 0 -155 -3 -160 -14 -19 -32 -13 -38 14 -3 15
-10 39 -15 53 -6 14 -9 30 -8 35 1 5 1 20 0 34 -1 20 -3 22 -11 10 -8 -12 -10
-12 -10 5 -1 11 -3 39 -6 63 -5 32 -3 42 8 42 18 0 17 92 -1 98 -14 5 -15 42
-1 42 13 0 13 27 0 32 -5 2 -10 48 -12 102 -2 57 -7 101 -13 103 -12 4 -12
-37 0 -57 5 -9 4 -11 -3 -6 -7 4 -10 2 -8 -6 3 -7 7 -38 10 -68 l6 -55 -19 35
c-32 58 -24 195 10 174 5 -3 9 6 9 20 0 14 -6 26 -12 26 -9 0 -8 4 2 10 8 5
11 10 5 10 -6 0 -10 30 -10 70 0 42 -5 74 -13 82 -13 13 -16 50 -5 62 10 10
11 46 1 46 -5 0 -7 4 -3 9 3 5 7 72 9 148 6 177 17 284 27 258 7 -19 8 -18 8
3 1 26 33 147 56 212 9 25 15 54 14 65 -2 35 1 46 11 40 6 -3 10 -2 10 4 0 6
9 19 21 30 11 10 22 25 23 32 5 27 29 68 37 64 4 -3 11 5 15 17 4 13 19 41 34
63 15 22 31 51 35 63 8 27 45 68 45 50 0 -6 12 -1 27 13 19 17 16 11 -10 -22
-20 -25 -37 -51 -37 -58 0 -7 -4 -10 -8 -7 -8 5 -59 -73 -83 -126 -6 -15 -16
-25 -20 -22 -5 3 -9 0 -9 -5 0 -20 -2 -26 -10 -36 -4 -5 -11 -25 -15 -42 -3
-18 -12 -33 -18 -33 -8 0 -7 -3 1 -9 11 -7 11 -9 -1 -14 -8 -3 -18 -19 -22
-36 -4 -17 -11 -29 -16 -25 -5 3 -9 2 -10 -3 -1 -17 -7 -40 -23 -93 -24 -79
-46 -223 -47 -310 -1 -59 -3 -68 -9 -40 -5 26 -8 10 -9 -57 -1 -85 0 -91 18
-86 13 3 17 11 14 24 -3 10 0 19 6 19 6 0 11 14 11 30 0 17 4 30 9 30 11 0 9
53 -2 61 -5 4 -1 22 9 40 10 19 18 45 19 59 0 31 13 52 26 45 5 -4 9 0 9 7 0
8 9 20 20 28 14 10 20 26 20 53 0 23 4 36 10 32 6 -3 17 1 26 9 8 9 11 16 5
16 -6 0 -11 10 -10 23 0 21 1 21 8 2 8 -19 8 -19 15 3 4 13 12 19 18 16 8 -5
9 -1 5 10 -4 10 -7 22 -7 27 0 6 -5 7 -11 4 -5 -4 -3 10 6 32 9 21 19 44 22
51 3 6 9 12 13 12 5 0 11 18 15 40 4 22 10 38 15 35 4 -3 11 7 14 23 14 58 70
200 78 196 4 -3 9 0 9 5 4 33 63 152 93 186 14 16 23 31 21 33 -4 4 36 62 63
92 7 8 31 40 54 70 22 30 44 57 48 60 4 3 23 24 43 47 19 23 56 61 83 84 27
23 48 46 47 51 -2 4 0 7 5 6 4 -1 25 9 47 24 45 29 87 43 158 53 26 3 45 10
42 16 -4 5 4 9 17 9 13 0 46 7 73 14 66 19 65 19 64 -1z m-959 -262 c0 -3 -9
-12 -20 -19 -12 -7 -18 -17 -15 -21 2 -5 -2 -11 -10 -15 -8 -3 -15 -16 -15
-28 0 -31 -32 -76 -50 -71 -10 3 -9 0 3 -7 9 -6 15 -16 12 -21 -4 -5 -11 -7
-16 -4 -5 4 -9 -1 -9 -9 0 -9 -7 -16 -15 -16 -8 0 -15 -5 -15 -11 0 -5 4 -8 9
-5 10 7 -22 -58 -40 -80 -7 -8 -18 -13 -24 -10 -11 4 -37 -35 -39 -58 -1 -5
-6 -11 -13 -13 -7 -3 -11 3 -8 15 5 30 34 82 45 82 6 0 10 9 10 20 0 11 6 20
14 20 14 0 32 36 28 53 -1 4 3 7 8 7 6 0 10 10 10 23 0 13 7 32 15 43 16 22
20 48 5 39 -15 -9 -12 18 4 41 8 10 18 15 22 11 5 -4 2 -12 -5 -17 -9 -5 -11
-14 -6 -26 7 -16 9 -16 12 -4 2 9 14 20 26 25 12 6 29 24 37 41 8 17 21 29 28
27 6 -3 12 -8 12 -12z m-725 -584 c0 -21 -3 -37 -7 -37 -5 0 -7 -3 -6 -7 3
-15 -25 -92 -32 -88 -5 3 -71 -132 -76 -155 -5 -30 -18 -59 -23 -55 -4 2 -15
-20 -25 -50 -9 -30 -21 -55 -26 -55 -5 0 -14 -16 -20 -36 -7 -19 -15 -33 -18
-30 -3 4 -18 -13 -34 -36 -15 -24 -28 -40 -28 -36 0 11 54 122 62 128 10 8 78
161 78 177 0 8 4 12 9 9 9 -6 55 124 66 184 6 37 20 66 29 63 18 -8 27 0 26
25 -3 39 -1 44 13 39 6 -2 12 -20 12 -40z m4406 -87 c6 0 7 5 4 10 -3 6 -2 10
3 10 16 0 21 -26 15 -65 -4 -25 -9 -32 -14 -23 -6 8 -9 2 -9 -20 0 -18 4 -31
9 -28 5 3 11 -2 14 -12 2 -9 8 -26 13 -36 5 -14 4 -17 -4 -12 -8 5 -12 0 -12
-12 0 -11 -3 -34 -6 -51 -5 -26 -3 -31 13 -31 10 0 26 9 36 20 9 11 26 20 36
20 25 0 32 12 20 30 -5 8 -9 11 -9 5 0 -5 -7 1 -16 13 -8 12 -13 26 -10 31 3
5 -4 12 -17 16 -19 6 -19 8 -4 12 17 5 24 23 8 23 -8 0 -17 20 -26 58 -5 20
12 14 33 -13 11 -14 25 -25 30 -25 6 0 14 -10 18 -22 3 -12 19 -32 35 -45 16
-14 28 -27 27 -31 -4 -14 14 -52 22 -47 7 4 15 -16 21 -50 1 -5 5 -20 10 -32
5 -15 5 -23 -2 -23 -5 0 -12 7 -15 15 -4 8 -9 13 -13 11 -3 -2 -12 2 -19 10
-7 8 -11 14 -8 14 2 0 -5 11 -17 24 -24 28 -42 25 -27 -4 9 -16 8 -19 -7 -14
-14 4 -13 3 2 -7 11 -7 24 -18 28 -26 4 -7 15 -13 22 -13 8 0 15 -4 15 -10 0
-6 3 -10 8 -9 4 1 17 -2 28 -6 18 -5 23 -19 31 -75 5 -38 5 -66 1 -64 -4 3 -8
0 -8 -5 0 -6 3 -11 8 -11 4 0 8 -30 10 -68 2 -37 7 -71 13 -76 5 -6 9 -2 9 11
0 12 4 24 9 27 4 3 6 -6 3 -21 -3 -18 -1 -24 7 -19 6 4 11 1 11 -9 0 -9 -4
-13 -10 -10 -5 3 -10 1 -10 -4 0 -6 5 -11 10 -11 6 0 10 -8 11 -17 0 -15 2
-15 9 2 12 31 24 -45 15 -102 -6 -41 -8 -45 -18 -28 -6 11 -17 25 -24 30 -7 6
-15 21 -18 34 -2 14 -9 29 -15 35 -5 5 -10 19 -10 30 0 18 2 19 11 6 8 -11 9
-8 4 15 -3 17 -12 55 -18 86 -7 30 -20 63 -29 73 -10 10 -18 15 -18 11 0 -3
-6 0 -13 7 -8 7 -12 26 -10 44 4 39 -23 55 -45 27 -11 -14 -15 -15 -19 -4 -5
11 -7 11 -14 0 -6 -10 -9 -9 -9 7 0 17 -8 23 -36 29 -26 4 -39 2 -45 -7 -7
-11 -9 -11 -9 0 0 10 -3 10 -15 -2 -16 -16 -20 -48 -7 -60 7 -7 8 -12 11 -38
0 -6 4 -8 8 -5 13 13 54 -74 56 -120 1 -18 5 -33 8 -33 5 0 5 -32 0 -49 0 -3
-8 4 -17 15 -14 18 -15 18 -9 -6 5 -21 4 -22 -5 -7 -6 9 -8 22 -5 27 3 6 -1
17 -9 26 -9 8 -16 12 -16 7 0 -4 -9 7 -21 26 -26 43 -36 34 -10 -10 10 -19 22
-49 26 -68 5 -21 10 -29 15 -21 6 10 14 -4 25 -50 0 -3 8 -21 17 -40 9 -19 26
-64 37 -100 11 -36 20 -58 21 -50 0 8 12 -18 25 -59 13 -40 29 -79 34 -84 6
-6 11 -22 10 -37 l0 -25 -10 24 c-5 13 -19 37 -32 55 -12 17 -21 32 -19 34 1
1 2 7 2 14 0 6 -3 8 -7 5 -7 -8 -35 29 -59 80 -9 18 -27 44 -41 58 -14 14 -22
25 -19 25 4 0 -8 21 -27 48 -19 26 -36 52 -37 57 -6 23 -13 35 -19 31 -4 -3
-21 22 -38 55 -17 32 -27 56 -22 53 5 -3 9 0 9 5 0 6 -6 11 -12 11 -9 0 -10 3
-2 8 13 8 10 40 -5 55 -8 8 -11 1 -12 -24 -1 -18 -3 -26 -6 -16 -2 9 -8 17
-13 17 -4 0 -27 38 -50 85 -24 46 -47 82 -51 79 -5 -3 -9 2 -9 11 0 8 -11 33
-25 55 -14 22 -26 50 -28 62 -1 13 -13 33 -26 46 -14 13 -26 28 -27 35 -2 15
-69 127 -87 147 -8 8 -17 21 -22 28 -6 11 -3 12 14 3 11 -7 21 -15 21 -20 0
-4 9 -18 20 -31 11 -12 17 -26 15 -30 -3 -4 2 -13 9 -19 12 -10 13 -8 9 8 -3
12 -1 21 6 21 6 0 10 -3 9 -7 -2 -5 2 -10 7 -12 6 -3 15 -9 20 -13 6 -5 22
-17 36 -28 15 -11 29 -33 33 -50 3 -17 10 -29 15 -26 5 4 15 -7 23 -24 11 -26
18 -30 53 -30 22 0 35 4 29 8 -7 4 -13 16 -15 26 -2 11 -11 21 -19 23 -12 4
-12 3 -1 -5 9 -7 10 -11 2 -17 -7 -4 -19 -1 -27 6 -12 10 -12 14 -2 21 9 6 7
8 -7 6 -16 -2 -21 4 -24 32 -3 29 -5 32 -11 15 -8 -19 -9 -19 -9 1 -1 12 -12
29 -26 38 -14 9 -23 21 -20 26 4 6 1 10 -4 10 -6 0 -11 4 -11 10 0 6 10 5 25
-2 13 -6 22 -14 20 -19 -3 -4 5 -11 17 -15 13 -4 29 -14 37 -23 7 -9 6 -4 -3
11 -9 15 -12 29 -7 33 5 3 12 -4 16 -15 4 -11 11 -17 17 -14 6 4 8 2 5 -3 -4
-6 -1 -13 7 -16 8 -3 18 5 26 21 11 25 13 26 25 9 7 -10 17 -18 21 -17 14 1
27 -97 14 -105 -4 -3 -15 4 -25 15 -10 11 -23 20 -29 20 -6 0 -1 -7 11 -15 11
-8 24 -26 27 -40 4 -14 14 -25 24 -25 15 0 15 -2 2 -10 -8 -5 -10 -10 -5 -11
52 -8 53 -7 58 35 6 40 -4 73 -20 69 -4 -2 -8 5 -8 15 0 10 6 16 15 15 19 -3
45 76 37 108 -5 17 -3 18 10 8 13 -11 14 -8 8 24 -4 20 -4 45 1 54 7 16 8 15
11 -4 3 -13 9 -23 14 -23z m-4622 -222 c-7 -18 -16 -35 -19 -38 -3 -3 -19 -40
-34 -83 -16 -42 -39 -93 -52 -112 -13 -19 -22 -35 -19 -35 2 0 -2 -15 -10 -34
-8 -18 -17 -48 -20 -64 -6 -39 -48 -116 -63 -120 -7 -1 -12 8 -11 20 0 25 17
70 19 53 0 -5 10 12 20 40 14 34 16 51 8 56 -14 9 -3 54 25 99 12 19 22 38 22
41 0 3 7 13 16 22 9 9 27 37 39 62 12 25 26 45 31 45 5 0 9 6 9 13 0 7 9 20
20 30 11 9 20 24 20 34 0 9 3 13 6 10 4 -4 1 -21 -7 -39z m4191 -147 c14 -34
39 -58 58 -55 6 1 16 2 21 3 5 0 13 10 16 21 3 11 11 20 16 20 6 0 7 -5 4 -10
-3 -6 1 -13 9 -16 21 -8 20 -31 -1 -37 -13 -3 -12 -5 5 -6 16 -1 23 -7 21 -18
-2 -30 1 -44 9 -40 11 7 27 -15 31 -43 l3 -25 -25 25 c-13 14 -27 35 -31 46
-8 27 -40 64 -55 64 -16 0 -15 -2 23 -72 18 -35 37 -76 41 -93 6 -26 8 -27 14
-10 7 16 9 14 14 -14 8 -38 8 -112 0 -93 -2 6 -8 10 -13 7 -5 -3 -12 4 -15 16
-12 38 -60 106 -71 102 -7 -2 -10 6 -6 24 2 15 1 25 -3 20 -8 -7 -37 54 -75
161 -19 54 -11 74 10 23z m-4201 -223 c-13 -23 -39 -92 -60 -152 -20 -60 -38
-103 -41 -95 -5 16 -79 -208 -77 -236 1 -21 8 0 29 88 13 53 36 67 25 15 -4
-18 -11 -37 -16 -42 -5 -6 -9 -22 -9 -37 0 -36 -10 -60 -21 -53 -5 3 -9 -4 -9
-15 0 -10 -4 -21 -9 -23 -5 -1 -11 -25 -14 -52 -4 -27 -11 -54 -16 -59 -7 -7
-7 -15 -1 -22 7 -8 7 -20 0 -36 -10 -23 -10 -22 -5 4 9 42 -9 24 -30 -30 -10
-26 -25 -55 -34 -63 -13 -13 -14 -13 -8 3 4 10 7 31 8 45 0 15 3 21 6 13 6
-14 25 31 37 88 6 25 6 25 -9 7 -8 -11 -15 -28 -15 -39 0 -10 -4 -16 -9 -13
-7 5 -71 -145 -77 -183 -2 -8 -8 -17 -14 -21 -13 -8 -42 -99 -35 -111 3 -4 3
-20 -1 -34 -5 -21 -9 -24 -16 -13 -7 9 -8 6 -4 -11 3 -13 2 -38 -1 -55 -5 -26
-7 -27 -14 -11 -6 16 -8 17 -8 3 -1 -9 3 -28 9 -42 7 -19 6 -26 -3 -27 -9 0
-9 -2 1 -6 6 -2 12 -17 11 -31 0 -33 -27 -154 -28 -129 -1 9 -6 17 -12 17 -5
0 -7 -4 -4 -10 3 -5 1 -10 -4 -10 -6 0 -11 8 -12 18 -1 9 -5 -1 -10 -22 -5
-22 -7 -44 -5 -50 2 -6 5 -1 5 12 1 12 5 22 9 22 8 0 5 -50 -4 -80 -4 -11 -7
-12 -13 -1 -10 16 -7 -79 3 -131 5 -21 12 -35 17 -32 5 3 9 -2 9 -11 0 -9 -4
-13 -10 -10 -13 8 -13 -8 0 -21 5 -5 12 -32 16 -59 4 -37 3 -46 -5 -35 -6 8
-11 26 -11 38 0 13 -7 39 -15 57 -9 17 -20 61 -25 96 l-8 64 2 -70 c2 -38 6
-77 9 -85 31 -76 29 -99 -2 -30 -11 25 -19 69 -20 112 -3 114 -11 93 -10 -28
0 -63 4 -101 8 -89 6 14 10 0 14 -45 3 -36 8 -74 11 -85 2 -11 5 -24 5 -28 1
-5 6 -5 13 -1 8 5 9 0 5 -15 -3 -12 0 -27 6 -34 7 -7 17 -22 23 -32 7 -11 19
-19 27 -19 11 1 21 -17 33 -57 10 -33 21 -54 25 -48 4 7 9 4 13 -7 3 -9 4 -19
1 -22 -3 -3 -5 0 -5 7 0 7 -5 9 -12 5 -6 -4 -17 1 -25 11 -8 12 -13 14 -13 6
0 -22 70 -130 91 -142 11 -5 18 -13 15 -17 -5 -9 12 -31 44 -57 l25 -20 -16
20 c-9 11 -27 44 -40 73 -13 28 -27 52 -31 52 -5 0 -8 5 -8 10 0 25 19 5 45
-47 30 -61 65 -112 65 -97 1 9 54 -86 55 -98 0 -3 3 -9 6 -12 16 -16 1 45 -15
63 -11 12 -16 21 -12 21 4 0 -1 13 -10 29 -10 17 -21 28 -25 26 -12 -8 -59
105 -80 193 -11 47 -26 90 -34 96 -14 11 -19 40 -15 91 2 21 4 24 7 11 3 -11
12 -27 21 -35 14 -15 15 -14 9 9 -4 14 -7 37 -7 51 0 16 -6 26 -15 26 -8 0
-15 -7 -15 -16 0 -14 -2 -14 -10 -1 -7 12 -3 18 18 27 25 10 27 14 23 60 -3
38 -6 43 -11 23 -6 -23 -7 -21 -11 12 -4 28 -2 35 7 27 9 -7 14 -5 17 8 3 10
6 0 7 -22 1 -22 3 -47 6 -55 2 -8 13 -60 24 -115 11 -55 24 -116 30 -135 l10
-35 -5 35 c-3 19 -11 69 -20 110 -8 41 -20 134 -27 207 -6 73 -14 130 -17 128
-4 -2 -22 0 -41 5 l-35 8 33 7 c27 6 32 12 31 34 -1 21 -3 22 -6 5 -3 -16 -10
-20 -29 -16 -17 3 -23 9 -20 19 3 8 6 32 6 52 0 31 5 40 25 49 31 14 38 15 30
3 -3 -5 -1 -12 5 -16 6 -3 12 0 14 7 8 23 21 231 19 301 -1 37 3 67 8 67 5 0
9 12 9 28 0 16 3 22 8 15 4 -7 14 37 21 99 15 125 35 194 26 88 -3 -36 -11
-98 -16 -139 -9 -65 -9 -75 5 -83 16 -9 21 -53 9 -83 -5 -15 -8 -14 -19 6 -12
22 -13 19 -14 -36 -1 -39 -4 -53 -9 -40 -23 58 -28 -468 -6 -620 8 -55 15
-104 15 -108 0 -5 5 -5 10 -2 6 3 10 -4 10 -17 0 -13 7 -45 15 -73 8 -27 13
-38 11 -22 -3 22 -1 25 11 16 7 -7 11 -14 8 -17 -3 -3 5 -12 18 -21 12 -9 22
-14 22 -11 0 2 13 -8 28 -22 22 -21 27 -32 22 -55 -4 -18 -3 -23 3 -15 11 16
32 -6 35 -37 1 -21 17 -30 17 -11 0 7 5 6 13 -2 8 -6 11 -23 9 -36 -4 -19 -2
-23 8 -17 10 6 12 4 7 -9 -4 -9 -3 -15 2 -12 5 3 19 -14 32 -39 13 -24 25 -42
28 -40 2 3 10 -8 18 -23 10 -19 12 -40 7 -72 -4 -25 -6 -49 -5 -55 5 -18 10
-59 10 -88 1 -16 5 -26 11 -22 6 4 8 11 5 16 -4 5 -3 9 0 9 11 0 65 -58 65
-69 0 -5 11 -8 23 -5 18 3 27 -3 37 -21 15 -29 40 -33 39 -7 0 11 -2 13 -6 4
-5 -14 -93 170 -93 195 0 8 -4 12 -9 9 -10 -6 -25 24 -16 32 3 3 5 0 5 -7 0
-7 4 -10 9 -6 8 4 19 -14 26 -45 5 -18 75 -153 76 -145 0 6 9 -8 20 -30 10
-22 19 -37 19 -32 0 4 0 9 1 12 1 12 60 67 66 61 3 -3 2 -6 -4 -6 -15 0 -55
-89 -49 -107 4 -9 13 -13 22 -9 9 3 12 2 9 -5 -4 -6 -1 -10 6 -8 26 3 40 -1
35 -10 -4 -5 7 -15 24 -23 34 -15 37 -23 14 -32 -11 -4 -14 -13 -10 -31 5 -18
2 -25 -9 -25 -8 0 -15 5 -15 12 0 6 -2 9 -5 6 -10 -9 7 -38 18 -31 6 3 7 1 3
-5 -4 -6 0 -24 9 -39 9 -16 14 -21 12 -12 -3 9 -2 21 3 28 5 9 10 4 14 -15 5
-17 3 -30 -5 -34 -13 -9 -4 -30 14 -30 9 0 9 2 0 8 -8 5 -8 12 3 26 10 14 14
16 14 5 0 -16 43 -103 62 -127 10 -12 10 -14 1 -8 -7 4 -13 2 -13 -3 0 -6 4
-11 9 -11 5 0 12 -8 15 -18 4 -10 13 -19 22 -19 8 0 13 6 10 13 -3 8 0 11 11
7 13 -5 14 -3 4 15 -10 18 -9 21 4 16 8 -4 15 -9 15 -14 0 -4 9 -17 20 -30 11
-13 20 -30 20 -38 0 -9 3 -12 7 -9 5 6 33 -42 37 -63 1 -3 13 -21 29 -41 15
-20 27 -44 28 -55 0 -18 1 -18 9 1 8 18 9 17 9 -8 1 -16 5 -26 11 -22 6 4 7
-1 3 -11 -4 -12 -3 -15 5 -10 8 5 10 1 5 -10 -4 -12 -3 -15 5 -10 7 4 10 2 6
-7 -2 -7 8 -42 25 -76 21 -46 31 -58 35 -44 3 10 4 6 2 -9 -2 -15 0 -26 3 -24
3 2 12 -2 19 -10 7 -8 10 -14 7 -14 -3 0 -3 -6 2 -12 4 -7 9 -17 10 -23 14
-55 63 -174 63 -156 0 43 9 17 17 -50 5 -35 8 -123 8 -195 0 -101 3 -130 13
-127 6 3 12 9 12 14 0 5 5 9 10 9 6 0 10 -4 10 -9 0 -15 -31 -42 -41 -36 -5 4
-9 -9 -9 -27 0 -25 -3 -29 -10 -18 -8 13 -10 12 -10 -2 0 -13 8 -18 25 -18 14
0 25 4 25 8 0 5 7 9 15 9 9 0 15 -10 15 -24 0 -16 -6 -23 -20 -23 -11 0 -25
-9 -32 -20 -7 -11 -20 -20 -29 -20 -19 0 -33 -26 -22 -42 3 -6 1 -8 -5 -4 -9
5 -18 -10 -27 -44 -6 -21 -18 -39 -24 -35 -4 2 -21 -14 -37 -35 -31 -43 -127
-103 -182 -115 -18 -3 -30 -10 -27 -15 6 -9 -100 -32 -171 -36 -66 -4 -76 -6
-93 -22 -7 -7 -20 -11 -28 -8 -8 3 -11 1 -8 -4 9 -14 -17 -12 -54 3 -17 7 -28
17 -24 21 5 4 1 7 -7 6 -27 -4 -38 0 -56 17 -9 10 -22 18 -28 19 -6 0 -17 2
-23 2 -7 1 -13 7 -13 13 0 7 7 8 18 4 28 -12 193 -15 186 -4 -3 6 3 5 14 -2
17 -10 35 -10 104 5 140 30 213 60 213 89 0 6 10 11 21 10 40 -4 157 148 138
179 -4 7 -3 8 4 4 7 -4 12 -3 12 3 0 28 -22 17 -36 -18 -9 -23 -19 -39 -24
-36 -4 2 -17 -18 -30 -45 -13 -28 -32 -58 -43 -67 -20 -18 -20 -18 -1 12 18
30 18 30 -1 14 -37 -30 -50 -32 -20 -3 17 16 33 29 37 29 5 0 17 18 29 40 12
22 25 42 28 45 4 3 15 26 24 51 14 36 18 81 19 200 0 85 4 143 7 129 7 -25 7
-25 13 -2 7 27 -12 82 -29 82 -15 0 -21 9 -28 50 -6 34 -24 73 -25 55 0 -5 -7
1 -14 14 -14 26 -11 57 8 64 6 2 4 3 -5 2 -10 -2 -22 8 -28 22 -6 13 -14 22
-19 20 -4 -3 -8 11 -9 31 -1 20 -7 38 -12 40 -6 2 -11 18 -12 35 -1 31 -1 31
-9 7 l-8 -25 -1 26 c-1 15 -10 37 -20 51 -11 13 -23 37 -27 52 -3 15 -19 37
-35 48 -16 12 -29 26 -29 31 0 6 -11 25 -25 43 -14 18 -25 37 -25 42 0 4 -12
19 -27 31 -20 18 -25 20 -20 6 4 -9 7 -21 7 -26 0 -5 5 -9 11 -9 5 0 7 6 3 13
-4 6 -4 9 0 5 4 -3 6 -8 5 -10 -1 -2 16 -39 39 -83 24 -44 35 -71 27 -60 -9
11 -28 43 -42 72 -14 29 -29 50 -34 48 -4 -3 -11 5 -15 17 -4 13 -19 41 -34
63 -15 22 -28 42 -28 45 -2 18 -15 39 -22 35 -5 -3 -12 5 -16 17 -7 22 -7 22
-14 3 -6 -16 -10 -12 -21 25 -14 49 -42 93 -53 83 -5 -6 -10 12 -7 30 0 4 -3
7 -7 7 -5 0 -14 12 -21 27 -11 24 -13 25 -28 10 -13 -13 -14 -19 -3 -31 7 -9
10 -16 6 -16 -3 0 8 -21 24 -47 17 -26 30 -53 30 -61 0 -7 4 -11 8 -8 7 4 42
-52 47 -74 0 -3 9 -20 19 -39 10 -18 13 -31 8 -27 -5 3 -22 32 -37 65 -16 33
-32 58 -36 55 -4 -2 -11 6 -15 18 -4 13 -20 42 -35 65 -16 23 -29 47 -29 53 0
7 -8 10 -19 7 -14 -3 -18 -1 -14 9 3 7 -5 34 -17 59 -12 25 -20 49 -16 52 3 3
11 -8 17 -26 6 -17 20 -36 32 -42 18 -10 19 -9 14 12 -4 13 -7 30 -7 37 0 7
-4 11 -9 8 -5 -3 -14 1 -21 8 -15 19 -50 16 -51 -4 0 -9 -4 -7 -9 7 -5 13 -16
20 -27 18 -10 -2 -24 -4 -30 -4 -7 -1 -13 -8 -13 -17 0 -13 3 -14 14 -5 7 6
20 9 27 6 21 -8 81 -116 74 -133 -3 -8 0 -21 6 -29 7 -7 9 -16 6 -20 -4 -3 -2
-12 4 -20 9 -10 8 -13 -5 -13 -9 0 -16 -5 -16 -11 0 -6 6 -9 14 -6 23 9 55
-21 67 -63 7 -23 18 -40 27 -40 9 0 12 -6 8 -16 -3 -8 -2 -12 4 -9 6 3 10 1
10 -4 0 -6 5 -10 12 -8 11 2 87 -124 88 -145 0 -5 -7 -8 -15 -8 -8 0 -14 3
-13 8 2 4 -10 19 -25 34 -15 15 -27 24 -27 20 0 -3 -8 5 -17 18 -10 14 -17 27
-16 30 4 12 -55 85 -67 82 -10 -2 -10 1 1 14 9 12 9 15 2 10 -8 -4 -13 -1 -13
9 0 8 -6 18 -14 21 -8 3 -19 18 -26 34 -7 16 -18 31 -26 34 -8 3 -14 16 -15
28 0 13 -3 18 -5 11 -3 -7 -11 -10 -19 -7 -10 4 -12 0 -8 -15 3 -12 12 -21 19
-21 8 0 14 -5 14 -11 0 -6 9 -24 21 -40 11 -16 17 -29 12 -29 -4 0 -2 -4 6 -9
8 -5 16 -19 18 -32 3 -18 1 -20 -12 -9 -8 7 -15 17 -15 23 0 6 -11 21 -24 32
-27 23 -90 146 -71 139 16 -6 28 23 13 32 -7 4 -8 3 -4 -4 4 -7 2 -12 -3 -12
-6 0 -11 10 -11 23 0 13 -5 28 -11 34 -7 7 -13 25 -14 40 -4 58 -3 57 -22 42
-17 -13 -17 -12 -4 4 10 13 11 21 4 25 -6 4 -13 14 -15 21 -6 28 -31 51 -44
40 -8 -7 -13 -3 -17 12 -4 14 -11 20 -21 16 -11 -5 -16 0 -17 16 -1 12 -3 36
-5 52 -2 26 -1 28 10 13 11 -15 13 -15 24 2 10 16 8 22 -8 33 -11 8 -20 27
-22 45 -1 18 -6 32 -11 32 -4 0 -5 5 -2 10 4 6 -10 35 -30 65 -21 29 -35 59
-32 67 3 9 7 7 13 -7 4 -11 18 -34 31 -51 13 -17 23 -34 23 -38 0 -4 13 -20
29 -36 25 -26 75 -134 77 -170 3 -45 4 -46 14 -30 8 12 10 8 12 -15 3 -50 4
-59 12 -84 6 -18 10 -20 17 -10 5 8 3 16 -4 21 -9 6 -8 8 3 8 13 0 13 1 0 11
-10 7 -11 9 -2 7 8 -2 13 -7 12 -12 -3 -14 20 -23 46 -18 17 3 23 9 20 19 -3
8 -6 19 -6 24 0 6 -4 7 -10 4 -5 -3 -10 -3 -10 2 0 4 -10 24 -22 43 -12 19
-22 37 -23 40 -2 15 -40 68 -46 64 -4 -2 -11 6 -15 18 -4 12 -22 45 -40 71
-19 27 -34 54 -34 59 0 5 -4 7 -8 4 -4 -2 -27 24 -50 59 -24 35 -50 66 -58 69
-7 3 -14 10 -14 16 0 6 5 8 12 4 7 -4 8 -3 4 4 -4 6 -13 9 -21 5 -8 -3 -15 0
-15 6 0 7 -18 29 -40 51 -22 22 -40 42 -40 46 0 3 -13 23 -29 43 -15 20 -32
46 -35 59 -4 12 -11 20 -16 17 -4 -3 -23 30 -40 72 -18 43 -35 83 -38 88 -7
10 -8 16 -10 48 -1 10 -7 15 -12 12 -8 -5 -8 -11 0 -20 6 -7 10 -17 9 -21 -1
-5 6 -26 15 -48 9 -21 15 -40 13 -42 -2 -3 -10 10 -18 28 -7 18 -16 35 -21 39
-4 3 -9 32 -11 65 -2 32 -10 93 -17 135 -11 63 -11 99 0 214 8 86 16 131 21
119 6 -15 8 -13 10 14 1 17 2 35 3 40 1 4 6 27 11 52 5 25 9 47 10 50 9 48 40
158 46 165 4 6 15 33 24 60 28 83 68 180 76 185 11 8 79 177 79 197 0 14 -2
14 -15 -3 -12 -15 -12 -11 2 19 9 20 21 37 26 37 5 0 4 -7 -3 -15 -9 -11 -10
-19 -3 -26 7 -7 18 17 34 73 13 46 24 85 24 88 3 23 30 78 37 74 4 -3 8 -2 9
3 2 26 77 253 79 238 1 -13 35 62 44 98 3 15 11 27 17 27 6 0 8 4 5 8 -10 16
14 81 32 84 25 6 25 4 1 -44z m3961 -308 c1 -82 11 -120 31 -120 11 0 19 -4
19 -10 0 -5 -5 -10 -10 -10 -6 0 -8 -16 -3 -42 4 -24 7 -50 7 -59 0 -9 6 -21
12 -27 10 -9 14 6 19 64 4 41 10 72 13 69 3 -3 7 -99 8 -213 1 -114 4 -225 7
-247 8 -49 25 -105 26 -85 1 8 8 2 16 -14 9 -16 14 -35 11 -43 -3 -7 0 -15 6
-19 7 -4 8 -3 4 4 -4 7 -2 12 3 12 14 0 14 -33 1 -46 -7 -7 -6 -11 4 -11 8 0
13 4 10 9 -3 4 0 8 5 8 6 0 11 -9 11 -20 0 -13 -5 -18 -15 -14 -8 4 -15 4 -15
1 0 -17 63 -177 70 -177 4 0 15 -19 25 -42 9 -23 26 -56 37 -72 l22 -31 -26
23 c-15 13 -32 37 -38 53 -12 28 -30 40 -30 19 0 -5 4 -10 8 -10 5 0 14 -10
20 -22 6 -13 20 -37 31 -54 16 -24 18 -31 6 -31 -8 0 -12 4 -9 9 3 5 -9 27
-27 49 -20 26 -34 36 -39 29 -6 -9 -49 86 -56 123 -1 4 -2 8 -3 10 -2 1 -5 13
-7 27 -2 13 -9 27 -14 30 -6 4 -12 15 -15 26 -2 10 -15 48 -29 83 -14 35 -23
68 -19 74 3 6 1 7 -6 3 -9 -6 -10 0 -6 21 5 23 4 25 -5 13 -10 -13 -11 -13 -6
2 3 9 -1 45 -9 80 -7 35 -14 56 -15 48 -6 -43 -39 216 -44 345 -4 83 -8 182
-11 220 -3 66 -3 68 10 40 8 -16 14 -50 15 -75z m-4323 -133 c13 5 15 2 10
-11 -4 -10 -7 -24 -7 -31 0 -8 -6 -20 -14 -27 -7 -8 -16 -32 -20 -54 -8 -56
-72 -265 -78 -258 -3 3 -11 -16 -16 -43 -12 -56 -31 -105 -31 -83 0 8 6 43 14
77 8 34 12 70 9 80 -5 15 -4 16 5 3 8 -11 11 -12 11 -2 0 7 7 20 15 28 8 9 15
25 14 37 0 21 -1 21 -9 2 -5 -11 -9 -15 -10 -10 0 6 -7 -1 -15 -15 -12 -21
-14 -22 -15 -6 0 44 -9 3 -30 -139 -12 -82 -25 -152 -29 -155 -5 -3 -14 -29
-21 -58 -7 -29 -14 -51 -16 -49 -6 5 15 125 41 232 13 55 33 144 46 198 15 69
25 95 32 88 7 -7 6 -19 -3 -38 -8 -16 -16 -31 -18 -35 -2 -5 -1 -8 3 -8 10 0
29 55 30 90 1 20 11 56 22 80 11 25 29 64 39 86 11 23 20 36 22 28 2 -7 10
-10 19 -7z m-103 -34 c-4 -16 -10 -30 -14 -33 -4 -3 -17 -45 -29 -95 -34 -132
-54 -195 -63 -195 -4 0 -8 -5 -8 -11 0 -5 5 -7 10 -4 6 3 10 -3 10 -14 0 -12
-4 -21 -10 -21 -5 0 -10 6 -10 13 0 8 -4 7 -10 -3 -13 -20 -12 -39 1 -20 8 11
9 6 6 -20 -3 -19 -15 -105 -27 -190 -11 -85 -21 -202 -22 -260 0 -105 19 -263
31 -255 4 2 5 -12 3 -31 -4 -35 -16 -44 -26 -21 -4 6 -3 -6 0 -28 8 -54 7
-179 -1 -206 -5 -15 -4 -19 5 -14 9 5 10 1 5 -14 -4 -14 -3 -21 5 -19 7 2 15
-3 18 -11 3 -8 0 -11 -7 -7 -6 4 -11 0 -11 -9 0 -9 4 -14 9 -11 5 3 9 0 8 -7
-1 -43 5 -54 37 -67 19 -7 34 -16 33 -19 -2 -9 25 -104 33 -116 4 -5 11 -23
15 -40 5 -16 9 -32 10 -35 1 -3 5 -17 9 -32 5 -16 12 -25 17 -22 5 3 9 -4 9
-15 0 -12 5 -21 11 -21 6 0 9 -7 5 -15 -3 -8 1 -21 9 -29 8 -8 12 -23 9 -33
-4 -13 -3 -14 4 -5 7 11 10 11 15 -3 4 -9 3 -13 -3 -10 -6 3 -10 1 -10 -4 0
-6 4 -11 10 -11 5 0 6 -7 3 -17 -4 -11 -3 -14 5 -9 8 4 10 2 6 -7 -3 -8 0 -18
7 -23 8 -4 10 -3 5 4 -4 8 -2 10 8 6 14 -5 41 -64 29 -64 -3 0 0 -7 7 -15 17
-20 30 -84 19 -91 -5 -3 -9 -2 -8 3 3 13 -23 74 -29 69 -5 -6 -24 22 -37 54
-4 8 -16 32 -26 52 -11 21 -18 41 -16 46 3 4 -1 15 -8 25 -13 17 -14 17 -20
-4 -4 -12 -3 -24 1 -28 9 -6 49 -79 49 -90 1 -3 11 -26 24 -49 12 -24 20 -46
18 -48 -6 -7 -53 77 -60 108 -4 13 -16 35 -27 48 -11 13 -20 32 -20 43 0 11
-3 17 -7 14 -6 -6 -123 204 -127 228 -1 5 -5 16 -9 23 -34 54 -102 311 -91
345 4 13 2 17 -5 13 -13 -9 -13 -9 -2 32 6 20 6 30 0 27 -5 -4 -9 -2 -9 2 0 5
-4 44 -9 88 -14 125 -20 223 -12 195 6 -21 9 -16 12 27 2 28 1 49 -3 46 -5 -2
-8 5 -8 17 0 13 4 19 11 14 8 -5 10 9 5 47 -4 34 -3 49 3 40 7 -11 10 -9 13
10 1 13 3 -23 3 -81 1 -101 9 -188 20 -198 3 -3 5 24 5 59 0 45 3 60 10 49 7
-11 10 -4 10 28 0 23 -4 42 -10 42 -5 0 -10 -9 -10 -19 0 -11 -4 -22 -9 -25
-5 -4 -8 21 -7 56 2 35 4 99 5 143 2 55 5 74 11 60 7 -16 9 -13 9 17 1 20 8
69 16 108 8 40 12 77 9 82 -4 6 -2 8 3 5 11 -7 28 41 18 51 -3 3 -5 -3 -5 -13
0 -10 -3 -16 -6 -12 -3 3 0 30 7 59 7 29 14 55 14 58 9 42 19 76 25 80 4 3 17
38 29 78 21 70 69 182 77 182 3 0 1 -12 -2 -27z m176 -27 c-5 -12 -18 -64 -30
-116 -12 -52 -23 -104 -26 -115 -4 -16 -3 -17 5 -5 12 17 14 10 5 -14 -3 -9
-10 -14 -15 -11 -8 6 -41 -48 -37 -62 1 -4 -3 -18 -10 -30 -7 -13 -10 -23 -7
-23 3 0 -3 -17 -13 -37 -11 -21 -25 -61 -32 -90 -8 -29 -17 -50 -22 -47 -4 3
-9 0 -9 -5 -1 -6 -3 -15 -4 -21 -1 -5 -4 -18 -5 -27 -1 -11 -5 -6 -9 12 -4 17
-5 35 -2 40 9 16 12 37 12 72 0 31 26 60 43 48 3 -3 2 0 -3 6 -6 7 -6 19 -1
28 40 76 50 127 29 148 -8 8 -8 16 1 30 10 16 11 16 6 1 -3 -12 0 -18 9 -18 8
0 15 9 15 21 0 11 5 17 10 14 6 -3 10 -1 10 4 0 20 2 26 15 51 18 36 36 120
29 132 -4 7 -2 8 4 4 10 -6 16 4 14 25 -1 3 5 6 13 6 9 0 11 -6 5 -21z m790
-381 c4 2 15 -23 24 -56 15 -52 16 -67 5 -111 -10 -37 -15 -45 -20 -31 -7 17
-8 17 -8 0 -1 -11 -8 -31 -15 -45 -24 -43 -39 -138 -41 -259 -2 -83 0 -111 9
-106 7 3 6 1 -1 -8 -15 -15 -17 -33 -3 -24 5 3 9 -9 8 -29 -1 -19 -6 -34 -12
-33 -7 1 -11 -27 -11 -83 0 -62 -4 -84 -13 -83 -7 2 -12 -9 -12 -28 0 -16 4
-28 9 -24 5 3 13 1 16 -5 4 -6 1 -9 -7 -8 -7 2 -13 -5 -12 -14 0 -10 2 -78 4
-150 3 -105 5 -121 10 -78 l7 55 1 -59 c2 -58 24 -160 44 -201 5 -12 10 -27
12 -35 5 -27 43 -100 48 -95 3 3 8 -12 12 -35 3 -22 10 -40 15 -40 5 0 2 27
-6 60 -11 42 -20 60 -32 61 -10 0 -11 2 -3 6 15 6 16 50 1 55 -7 2 -7 12 -1
28 9 23 10 20 17 -25 4 -27 14 -67 21 -87 7 -21 11 -38 9 -38 -3 0 0 -12 6
-27 20 -50 37 -128 32 -137 -4 -5 -1 -6 5 -2 8 5 12 -1 13 -16 0 -21 1 -21 8
-3 7 16 9 15 14 -13 3 -17 22 -63 42 -103 19 -39 35 -78 35 -86 0 -8 4 -12 8
-9 4 2 27 -32 50 -76 l43 -81 -41 41 c-22 23 -40 47 -40 53 0 5 -4 7 -10 4 -5
-3 -10 -2 -10 3 0 13 -41 57 -51 55 -4 -2 -6 3 -4 10 3 6 -4 26 -15 42 -11 17
-20 27 -20 23 0 -5 -8 0 -18 10 -10 9 -14 20 -10 23 14 10 -58 80 -76 73 -13
-5 -22 8 -14 19 1 1 -14 26 -34 54 -20 29 -39 58 -41 65 -4 10 -7 10 -15 0 -7
-10 -13 -3 -26 27 -18 46 -20 65 -7 57 5 -3 3 16 -4 42 -30 113 -37 154 -48
267 -11 106 -13 114 -18 70 -6 -50 -6 -50 -7 17 -1 38 2 68 8 70 6 2 11 34 11
71 1 37 4 69 9 72 5 3 7 51 7 107 -2 81 -5 102 -17 105 -8 3 -25 9 -37 15 -12
6 -29 8 -37 5 -9 -4 -17 -2 -17 3 -5 34 -2 44 13 53 13 9 22 7 38 -8 12 -11
24 -19 26 -17 9 5 24 2 22 -5 -3 -8 5 -13 20 -13 11 0 11 2 12 130 1 129 21
320 31 294 6 -16 8 -15 8 6 1 14 8 53 17 85 9 33 18 71 20 85 3 14 9 29 15 35
5 5 9 18 10 30 0 11 3 14 6 7 2 -6 8 -10 13 -7z m3868 -697 c-4 -105 -45 -335
-57 -323 -3 3 -10 -14 -16 -37 -30 -114 -70 -244 -77 -248 -4 -3 -9 -17 -11
-30 -3 -14 -12 -60 -21 -103 -9 -43 -19 -106 -23 -140 -3 -34 -10 -69 -15 -77
-7 -12 -8 -10 -4 5 2 11 7 52 11 90 7 87 56 335 65 330 6 -4 81 249 80 272 0
6 4 13 10 15 19 6 47 179 49 311 1 26 4 47 7 47 4 0 4 -51 2 -112z m271 -890
c-6 -48 -16 -85 -20 -82 -5 3 -9 -3 -9 -12 0 -30 -73 -313 -80 -309 -12 8 -80
-343 -81 -424 -1 -43 -3 -50 -9 -31 -10 30 -13 -256 -4 -352 4 -41 11 -66 18
-65 6 1 10 -8 8 -20 -8 -56 70 -380 97 -403 18 -15 54 -62 44 -56 -16 9 -16 5
-3 -28 5 -14 7 -26 5 -26 -3 0 -12 18 -21 40 -9 22 -20 38 -24 35 -7 -4 -11 4
-19 40 -1 6 -8 17 -15 25 -8 8 -14 22 -14 30 0 23 -60 266 -63 255 -6 -35 -30
167 -35 308 -7 173 10 422 27 395 6 -9 9 -4 9 14 0 36 57 278 71 302 6 10 12
26 14 35 2 9 13 50 24 91 12 41 24 91 27 110 3 19 12 49 20 65 15 32 32 144
36 235 2 52 2 52 6 -15 2 -38 -2 -109 -9 -157z m-180 -99 c-17 -68 -36 -127
-42 -131 -7 -4 -9 -8 -5 -8 4 0 2 -15 -3 -32 -14 -49 -59 -327 -59 -368 0 -24
-3 -31 -9 -21 -13 21 -25 -243 -17 -404 7 -156 14 -207 27 -199 5 3 9 -3 10
-13 2 -62 81 -283 100 -283 5 0 18 -19 30 -42 15 -30 17 -39 6 -30 -8 7 -18
24 -21 38 -4 14 -10 23 -15 20 -6 -4 -41 54 -41 69 0 3 -11 28 -25 55 -14 27
-25 52 -24 55 2 15 -14 65 -20 61 -8 -5 -27 92 -41 204 -12 102 -3 383 15 495
2 11 4 33 4 48 1 16 5 26 11 22 6 -4 10 6 10 22 0 53 60 353 70 353 4 0 10 15
14 33 12 58 48 188 52 184 2 -2 -10 -59 -27 -128z m431 -26 c0 -20 -24 -99
-46 -151 -8 -18 -15 -47 -15 -65 l-2 -32 -7 35 -7 35 -2 -32 c0 -17 -8 -38
-16 -47 -8 -8 -15 -22 -15 -31 0 -9 -7 -29 -15 -43 -8 -15 -19 -46 -25 -70 -6
-23 -15 -40 -20 -37 -6 4 -10 -2 -10 -11 0 -13 -3 -15 -11 -7 -14 14 8 116 22
107 5 -3 9 3 9 14 0 10 3 22 8 26 4 4 7 11 7 14 0 11 26 94 38 122 6 14 12 32
13 40 2 8 8 16 13 18 6 2 11 9 11 16 0 7 14 32 30 55 17 23 28 46 25 51 -4 6
-1 10 4 10 6 0 11 -8 11 -17z m-5102 -120 c-1 -5 8 -27 20 -50 12 -24 20 -43
17 -43 -2 0 4 -14 15 -32 12 -20 17 -41 13 -59 -4 -23 -2 -27 13 -25 11 2 13
1 7 -1 -7 -3 -13 -9 -13 -15 0 -6 3 -8 7 -5 6 7 53 -55 53 -70 0 -5 14 -24 32
-43 18 -19 49 -57 70 -85 20 -27 43 -57 51 -65 32 -36 58 -81 51 -91 -4 -8 -3
-9 4 -5 12 7 16 -5 13 -33 -2 -7 2 -10 8 -7 10 6 51 -31 51 -46 0 -5 12 -26
26 -48 14 -21 24 -45 21 -52 -3 -8 -6 -6 -6 5 -1 10 -6 15 -11 12 -6 -4 -10
-3 -9 2 3 19 -2 34 -10 29 -5 -3 -8 2 -7 11 0 10 -5 18 -11 18 -7 0 -20 10
-28 22 -15 21 -15 22 2 16 16 -6 16 -5 4 10 -7 9 -17 15 -21 12 -10 -6 -96
110 -140 188 -17 31 -36 57 -41 57 -5 0 -9 5 -9 12 0 6 -12 27 -27 47 -16 20
-28 38 -28 41 0 10 -35 54 -35 45 -1 -12 -33 45 -36 63 -1 8 -10 22 -18 31
-19 21 -21 35 -3 25 7 -4 9 -3 4 2 -5 5 -14 9 -20 9 -7 0 -12 7 -13 15 -1 8
-2 24 -3 35 l-2 20 -9 -20 c-8 -19 -9 -19 -11 3 -1 12 -3 30 -3 40 -1 9 -8 20
-16 24 -9 4 -2 7 18 7 17 1 31 -2 30 -6z m4733 -686 c-14 -14 -14 -115 -1
-188 5 -30 12 -72 15 -93 5 -29 9 -36 16 -25 6 10 9 7 9 -12 0 -14 3 -29 7
-33 7 -7 10 -17 20 -68 6 -33 -16 -40 -24 -8 -3 11 -9 17 -14 14 -5 -3 -12 9
-15 26 -4 17 -11 33 -15 36 -5 3 -9 14 -9 25 0 10 -4 27 -9 37 -6 9 -12 33
-16 53 -3 20 -13 44 -23 55 -15 16 -17 25 -9 52 6 17 14 32 19 32 4 0 8 11 8
25 0 15 7 39 15 55 9 17 16 33 16 37 1 5 4 15 8 23 4 11 7 8 9 -9 2 -13 -1
-28 -7 -34z m-523 5 c0 -4 1 -9 2 -12 1 -3 3 -16 5 -30 3 -27 11 -60 20 -91 8
-24 25 -15 26 14 0 21 1 21 9 2 7 -17 9 -16 9 10 1 17 6 37 11 45 7 10 10 -10
8 -65 0 -44 4 -92 10 -107 9 -23 9 -26 -3 -21 -19 7 -19 7 5 -62 30 -86 23
-91 -9 -7 -15 40 -30 70 -34 66 -4 -4 -7 -2 -7 4 0 21 -18 13 -26 -10 -4 -13
-6 -25 -5 -27 2 -2 -2 -7 -8 -10 -5 -4 -19 -26 -29 -50 -12 -26 -22 -38 -25
-29 -3 7 -6 2 -6 -10 -1 -13 -7 -36 -15 -50 -8 -15 -21 -48 -30 -73 -11 -31
-24 -49 -37 -52 -18 -5 -20 -2 -16 19 2 13 0 27 -4 30 -12 7 -11 44 1 44 6 0
10 -7 10 -16 0 -36 25 -3 40 55 10 34 26 81 36 103 14 31 15 43 6 46 -22 7
-13 30 11 26 l22 -5 -22 10 c-33 15 -28 25 7 18 23 -5 30 -3 30 9 0 9 -9 18
-20 21 -11 3 -20 9 -20 13 0 4 -18 15 -40 25 -22 10 -37 21 -35 26 3 4 0 11
-6 15 -8 4 -9 3 -5 -4 4 -7 1 -12 -6 -12 -9 0 -15 14 -16 40 -2 34 0 40 18 40
20 0 63 -34 53 -43 -4 -5 39 -22 45 -18 1 1 10 -5 19 -14 21 -22 29 -11 11 17
-8 13 -16 49 -17 80 -2 49 0 57 13 52 8 -3 15 -9 14 -12z m-393 -182 c-5 -23
-3 -30 9 -30 29 0 26 -18 -7 -39 -29 -19 -30 -21 -9 -21 15 0 22 -6 22 -19 0
-11 5 -23 11 -27 8 -4 8 -9 0 -17 -7 -7 -7 -15 -1 -22 5 -6 10 -25 12 -42 2
-36 31 -39 36 -5 2 12 10 22 18 22 17 0 19 -36 2 -43 -8 -3 -6 -6 5 -6 9 -1
17 -5 17 -9 0 -5 -13 -7 -30 -4 -29 4 -30 3 -30 -32 0 -22 -5 -36 -12 -36 -7
0 -5 -5 5 -11 18 -11 23 -44 8 -54 -6 -3 -8 -38 -5 -78 2 -39 6 -159 7 -265 2
-149 0 -195 -10 -204 -7 -6 -13 -18 -12 -27 0 -12 2 -12 10 4 6 13 7 0 3 -39
-5 -43 -4 -57 5 -52 6 4 11 4 12 -1 4 -51 2 -80 -6 -79 -5 1 -11 -3 -12 -9 -1
-5 5 -9 13 -7 10 2 14 -7 13 -35 0 -30 -2 -34 -9 -18 -8 18 -9 18 -9 2 -1 -11
-6 -15 -13 -11 -6 4 -8 3 -5 -3 4 -5 -3 -19 -13 -31 -11 -12 -20 -29 -21 -39
-1 -13 -3 -10 -9 7 -7 22 -8 23 -9 4 -1 -23 -28 -81 -41 -89 -5 -3 -7 -14 -5
-25 2 -12 0 -18 -6 -15 -5 4 -10 1 -10 -4 -3 -26 -4 -30 -11 -37 -5 -4 -8 -2
-8 5 0 7 -5 9 -10 6 -6 -4 -8 -10 -5 -15 9 -14 -103 -122 -117 -114 -10 5 -10
4 -1 -6 10 -11 -6 -32 -87 -112 -55 -54 -95 -98 -88 -98 16 0 -38 -43 -58 -46
-21 -3 -83 -47 -78 -55 2 -4 -3 -9 -11 -12 -8 -4 -12 -15 -10 -26 2 -11 -1
-23 -6 -27 -5 -3 -9 -2 -8 3 5 28 -4 29 -28 5 -16 -15 -34 -28 -40 -28 -26 -2
-30 -5 -41 -30 -7 -14 -8 -23 -2 -19 5 3 10 2 10 -4 0 -6 -10 -15 -21 -22 -15
-8 -19 -8 -15 0 4 6 0 11 -8 11 -10 0 -13 -6 -10 -15 4 -8 2 -15 -2 -16 -5 0
-17 -2 -26 -4 -10 -2 -22 4 -27 13 -7 12 -10 9 -16 -16 -3 -18 -10 -32 -13
-32 -22 1 -52 14 -52 24 0 6 -20 12 -48 13 -57 2 -158 36 -154 52 1 6 -6 11
-15 12 -11 0 -13 3 -5 6 8 3 4 11 -13 25 -14 11 -25 26 -25 34 0 8 -4 14 -10
14 -5 0 -10 -21 -10 -46 0 -43 -2 -46 -22 -40 -13 3 -29 6 -36 6 -7 0 -11 4
-7 10 6 10 -70 36 -98 32 -11 -1 -15 2 -11 9 4 7 -1 10 -12 7 -11 -2 -28 4
-38 14 -11 10 -27 18 -35 19 -12 0 -10 3 4 9 19 8 19 9 -2 9 -14 1 -23 7 -23
17 0 12 -6 15 -25 10 -14 -4 -41 0 -60 8 -19 8 -35 13 -35 10 0 -3 -13 4 -29
15 -16 12 -36 18 -45 15 -9 -3 -16 -1 -16 6 0 6 5 8 10 5 6 -3 10 -2 10 3 0 8
-63 42 -78 42 -4 0 4 -9 18 -20 14 -11 20 -20 14 -20 -12 0 -40 28 -46 45 -2
6 -9 9 -15 9 -7 -1 -11 2 -8 6 6 10 -24 22 -36 15 -5 -4 -6 0 -3 8 3 9 -8 22
-31 36 -20 11 -33 17 -30 11 3 -6 -4 -10 -16 -10 -17 0 -19 3 -10 14 9 11 8
15 -6 22 -26 11 -53 13 -59 3 -7 -12 -24 -11 -24 2 0 5 5 7 10 4 6 -3 10 1 10
11 0 13 3 14 14 5 8 -7 17 -8 20 -3 5 9 -54 41 -88 48 -10 2 -21 6 -25 10 -3
4 2 4 12 1 29 -11 9 13 -21 24 -17 7 -29 6 -36 -1 -5 -5 -16 -10 -23 -10 -10
0 -12 16 -9 67 12 159 18 198 34 210 12 10 15 31 14 98 -1 54 3 85 9 85 6 0 9
-7 5 -15 -3 -8 -1 -15 4 -15 11 0 12 10 11 80 0 65 -9 141 -16 149 -4 3 -5 -3
-3 -14 3 -21 -21 -29 -34 -10 -4 5 -8 -3 -8 -20 0 -23 -3 -26 -12 -17 -14 14
2 49 21 44 6 -1 11 7 11 18 0 11 5 20 12 20 6 0 8 3 5 6 -4 4 -13 1 -22 -6
-17 -14 -31 -8 -20 9 3 6 17 11 31 11 14 0 23 4 19 9 -3 5 -1 12 5 16 5 3 10
17 10 30 0 25 20 38 48 29 14 -5 15 -4 2 5 -14 10 -7 16 13 12 5 -1 5 4 2 10
-5 8 -10 8 -18 0 -6 -6 -18 -11 -26 -11 -14 1 -13 2 1 10 11 7 15 19 12 36 -5
26 -5 26 56 22 l60 -4 0 33 c0 18 4 33 8 33 5 0 9 7 9 15 0 11 -4 12 -13 4
-18 -15 -33 -3 -27 21 3 11 9 17 14 14 5 -3 9 7 10 23 0 15 3 22 6 15 4 -10 9
-9 19 5 13 16 13 15 4 -9 -7 -21 -6 -28 3 -28 7 0 13 8 14 19 2 18 43 93 43
77 0 -4 14 6 32 23 17 17 42 31 55 31 13 0 41 11 63 25 44 28 55 31 44 13 -4
-7 -3 -8 5 -4 15 10 5 26 -17 27 -9 0 -3 5 13 10 17 5 36 7 43 4 7 -3 12 5 12
20 0 13 5 27 12 31 7 4 8 3 4 -4 -4 -7 -4 -17 0 -23 4 -8 9 -7 15 2 6 10 9 8
9 -8 0 -13 6 -23 13 -23 8 0 7 -4 -3 -10 -13 -8 -12 -10 3 -10 10 0 17 8 17
20 0 11 7 20 16 20 9 0 12 5 8 13 -6 10 -4 10 7 0 17 -16 88 -18 72 -2 -14 14
-5 49 13 49 8 0 14 5 14 11 0 5 -4 7 -10 4 -5 -3 -10 0 -10 7 0 7 12 18 26 25
22 10 24 10 14 -3 -10 -12 -7 -14 19 -14 19 0 30 -4 26 -10 -3 -5 -1 -10 4
-10 18 0 12 17 -11 33 -23 16 -23 16 10 16 31 1 32 0 28 -34 -4 -30 -2 -35 12
-31 30 10 116 8 150 -3 17 -5 32 -7 32 -3 0 4 17 7 38 8 20 1 72 5 115 9 74 7
77 6 77 -14 0 -11 -5 -20 -12 -19 -6 2 -13 -5 -16 -14 -3 -15 7 -17 86 -16
l90 1 -11 24 c-10 23 -10 23 -24 3 -18 -25 -41 -25 -73 1 -14 12 -18 19 -9 16
11 -4 16 0 15 11 -1 13 11 18 49 23 28 3 43 7 35 8 -11 2 -10 5 5 11 36 15 47
12 35 -10 -6 -11 -9 -20 -8 -21 36 -9 39 -7 34 32 -3 27 -1 39 7 37 7 -2 23 8
35 20 14 14 30 21 39 18 9 -4 17 1 20 14 3 11 12 20 20 20 10 0 12 -4 4 -17
-7 -14 -4 -24 12 -43 12 -13 14 -19 5 -11 -16 12 -16 10 -8 -17 4 -17 6 -33 2
-36 -6 -6 25 -10 43 -6 6 1 16 3 23 3 6 0 12 6 12 14 0 7 5 13 10 13 6 0 15
12 20 26 7 17 15 24 25 20 8 -3 15 -1 15 3 0 5 -6 12 -12 14 -12 5 27 11 46 8
5 -1 6 5 3 14 -4 10 0 15 12 15 17 0 22 24 9 45 -3 6 0 19 8 30 12 16 14 17
14 2 0 -9 -5 -17 -12 -17 -6 0 -8 -3 -4 -7 4 -5 16 -8 27 -8 10 0 19 -3 19 -7
0 -5 0 -12 0 -18 0 -5 -8 -7 -17 -4 -10 2 -7 -1 6 -8 19 -10 28 -9 52 5 16 9
29 12 29 7 0 -6 5 -10 11 -10 5 0 8 4 5 9 -5 8 15 30 42 46 10 5 13 2 10 -12
-2 -11 1 -19 7 -19 5 1 8 9 7 19 -2 9 2 17 7 17 6 0 11 -6 12 -12 0 -7 4 -2
10 10 5 13 7 28 3 33 -3 5 0 9 5 9 6 0 11 7 11 15 0 8 3 15 6 15 3 0 3 -13 -1
-30z m-2884 -300 c28 -80 31 -96 36 -195 4 -74 1 -99 -16 -141 -11 -29 -17
-55 -13 -58 3 -4 -4 -9 -16 -13 -12 -3 -22 -13 -22 -22 0 -14 -2 -14 -10 -1
-8 13 -10 12 -10 -3 0 -10 -7 -20 -15 -23 -8 -4 -13 -10 -10 -14 3 -4 -2 -13
-10 -20 -8 -7 -15 -19 -15 -26 0 -8 -16 -22 -35 -31 -19 -9 -32 -20 -29 -25 3
-4 -2 -8 -10 -8 -20 0 -21 24 -2 39 8 7 17 23 20 37 4 14 11 22 16 19 6 -3 10
2 11 12 0 10 22 36 49 58 45 37 88 100 77 111 -3 3 -24 5 -46 6 -43 0 -87 28
-60 37 7 2 15 -1 17 -7 2 -7 17 -12 33 -12 18 0 28 4 24 10 -4 6 6 10 23 10
l30 0 -3 83 c-1 45 -4 82 -5 82 -1 0 -4 9 -6 20 -9 51 -29 115 -36 115 -5 0
-8 5 -8 11 0 27 24 -2 41 -51z m3905 -177 c12 -23 24 -39 28 -36 3 3 9 -3 13
-13 4 -10 14 -24 22 -31 16 -12 18 -15 20 -59 1 -20 5 -25 24 -22 12 1 33 -5
47 -15 13 -9 21 -17 16 -17 -5 0 3 -9 18 -21 20 -15 25 -27 21 -43 -5 -16 -4
-18 4 -6 9 13 14 13 40 -3 16 -9 37 -17 46 -17 9 0 14 -4 11 -9 -6 -9 51 -24
63 -16 4 2 32 -2 62 -10 30 -8 71 -15 93 -15 32 0 36 -2 27 -14 -7 -8 -27 -17
-47 -20 -19 -4 -32 -11 -29 -17 4 -5 1 -9 -4 -9 -6 0 -11 7 -11 15 0 9 -6 12
-15 9 -8 -4 -15 -12 -15 -18 0 -7 -6 -14 -12 -15 -42 -8 -106 -7 -140 2 -39
10 -40 11 -22 26 11 9 17 15 15 13 -2 -1 -12 5 -21 13 -14 13 -17 13 -17 0 0
-8 4 -12 9 -9 4 3 8 0 8 -5 0 -19 -31 -12 -75 19 -24 16 -51 37 -59 46 -15 14
-16 14 -16 -2 0 -18 -7 -17 -11 1 -1 6 -10 16 -21 23 -10 7 -16 18 -13 23 4 5
21 -2 39 -16 18 -14 36 -22 41 -17 5 4 5 1 1 -5 -4 -7 -2 -13 3 -13 26 0 8 29
-29 45 -22 10 -37 22 -33 28 3 6 2 7 -3 4 -14 -8 -35 7 -38 27 -1 9 -5 15 -8
14 -12 -6 -49 36 -44 49 3 7 -1 13 -8 13 -15 0 -30 59 -21 83 4 8 1 18 -5 22
-6 4 -8 16 -4 27 4 12 1 24 -7 30 -10 6 -7 8 10 6 17 -2 31 -16 47 -45z m-493
-140 c4 -3 1 -13 -6 -22 -8 -9 -22 -37 -31 -64 -10 -26 -21 -45 -26 -42 -4 3
-11 -5 -15 -18 -9 -28 -8 -25 -30 -72 -17 -38 -21 -47 -24 -61 0 -4 -8 -1 -16
6 -10 8 -14 29 -13 64 l1 51 7 -55 7 -55 1 58 c1 32 -2 57 -8 57 -5 0 -10 9
-10 20 0 11 -11 27 -25 36 -14 9 -25 25 -25 35 0 18 32 43 43 33 3 -3 28 1 56
10 29 8 58 13 65 10 8 -3 17 -1 21 5 7 12 19 14 28 4z m83 -70 c-2 -3 7 -21
20 -40 13 -20 24 -44 24 -55 0 -11 5 -16 10 -13 6 3 10 -2 10 -12 0 -11 4 -23
9 -28 4 -6 23 -52 42 -103 24 -66 36 -87 41 -75 6 17 7 17 7 0 1 -10 10 -46
22 -80 12 -34 23 -72 25 -84 2 -12 9 -35 16 -50 6 -16 12 -30 13 -33 8 -31 18
-49 24 -46 4 3 16 -18 26 -47 10 -29 21 -56 25 -62 4 -5 11 -30 15 -55 7 -39
6 -43 -7 -32 -12 10 -17 7 -28 -16 -8 -15 -14 -30 -14 -33 -1 -3 -9 -13 -18
-22 -9 -10 -31 -45 -49 -77 -18 -33 -34 -58 -37 -55 -5 5 -37 -34 -37 -45 0
-7 -45 -72 -64 -92 -26 -27 -76 -99 -76 -109 0 -5 -3 -8 -7 -6 -6 2 -71 -80
-74 -93 -4 -18 -17 -39 -23 -36 -3 1 -19 -13 -36 -32 -16 -20 -23 -32 -15 -27
8 4 -18 -24 -57 -64 -40 -40 -73 -77 -73 -82 0 -6 -4 -8 -9 -5 -4 3 -19 -6
-31 -19 -13 -14 -20 -25 -16 -25 11 0 -101 -108 -149 -145 -53 -40 -165 -147
-160 -154 1 -3 -3 -12 -11 -19 -8 -7 -14 -10 -14 -7 0 4 -19 -15 -42 -42 -47
-55 -121 -123 -133 -123 -4 0 9 20 29 44 20 24 36 47 36 51 0 4 -12 -8 -27
-25 -25 -30 -27 -31 -40 -14 -7 10 -13 29 -13 43 0 24 -1 24 -14 6 -10 -14
-11 -26 -4 -47 6 -15 14 -25 19 -22 5 3 9 0 9 -5 0 -6 -5 -11 -11 -11 -5 0 -7
-6 -4 -12 4 -7 -1 -4 -9 6 -9 11 -19 36 -22 55 -4 20 -17 52 -29 71 -12 19
-22 37 -23 40 -2 15 -21 53 -21 45 -1 -5 -17 17 -37 50 -19 33 -43 67 -52 75
-18 16 -69 88 -87 122 -5 12 -12 19 -15 17 -10 -7 -90 62 -90 77 0 8 10 14 22
14 15 0 19 3 12 10 -6 6 -36 11 -67 11 -32 1 -57 5 -57 9 0 4 15 17 33 29 17
11 28 21 24 21 -5 0 29 19 75 43 46 24 82 48 81 54 -2 7 6 15 17 18 11 4 20
11 20 17 0 6 3 8 6 5 8 -7 94 52 94 65 0 4 6 8 13 8 7 0 27 16 46 35 18 19 36
33 41 30 4 -3 13 2 20 10 7 8 10 15 7 15 -3 0 11 17 32 38 20 21 39 36 43 35
6 -3 22 16 23 27 2 22 34 71 52 81 13 7 23 15 23 19 0 4 15 27 34 51 19 23 33
45 31 49 -4 7 22 30 28 24 2 -3 12 7 21 21 17 26 17 26 -3 16 -26 -15 -31 -14
-31 5 0 8 4 13 9 9 6 -3 15 5 22 17 7 13 23 33 36 45 12 12 23 27 23 33 0 6 4
9 8 6 4 -2 14 9 21 26 8 16 30 42 50 56 38 27 111 113 111 130 0 5 7 12 15 16
8 3 15 12 15 20 0 7 7 16 15 20 8 3 23 21 32 40 9 19 20 33 24 30 4 -2 13 12
20 31 7 19 16 35 19 35 3 0 7 11 8 26 1 14 6 34 12 44 5 10 10 28 10 39 0 12
5 21 10 21 6 0 10 10 10 22 0 12 3 19 6 15 8 -7 35 18 38 36 9 41 55 107 57
81 0 -5 4 1 9 13 6 15 15 21 25 17 9 -4 14 -9 11 -11z m-432 -128 c-3 -8 -15
-17 -25 -20 -13 -4 -18 -13 -15 -23 3 -9 8 -55 11 -102 6 -100 17 -155 30
-154 18 1 44 -43 40 -66 -7 -36 -26 -51 -59 -48 -23 2 -31 8 -32 23 -1 11 -5
64 -9 118 -3 53 -10 110 -14 125 -16 59 4 123 46 146 35 19 33 19 27 1z
m-2404 -149 c0 -15 -14 -35 -21 -30 -5 3 -10 -1 -10 -8 -2 -20 2 -117 6 -136
2 -9 4 -26 5 -37 l1 -20 9 20 c8 19 9 18 11 -5 1 -14 3 -35 4 -47 1 -14 -3
-23 -11 -23 -8 0 -14 3 -15 8 -3 30 -17 84 -32 125 -4 9 -9 24 -12 33 -3 8
-10 12 -16 9 -6 -4 -8 -14 -4 -23 3 -8 8 -31 11 -51 3 -20 8 -40 11 -44 12
-19 30 -118 23 -122 -11 -7 -32 59 -28 83 2 10 -3 26 -10 35 -8 9 -16 34 -19
56 -3 23 -8 39 -12 37 -3 -2 -16 0 -27 4 -22 9 -39 66 -22 76 4 3 8 0 8 -6 0
-6 17 -2 40 11 22 13 40 28 40 35 0 11 18 18 58 23 6 0 12 -1 12 -3z m-320
-172 c0 -26 -64 -101 -81 -96 -5 1 -12 -5 -15 -13 -4 -8 -10 -15 -16 -15 -5 0
-7 4 -3 9 3 5 1 12 -5 16 -6 3 -10 -3 -10 -15 0 -14 -8 -24 -22 -28 -13 -3
-24 -4 -25 -1 -2 2 -9 -5 -16 -16 -16 -24 -21 -79 -7 -70 6 3 10 13 10 21 0 8
10 14 24 14 21 0 24 -4 21 -32 -8 -81 -18 -129 -25 -118 -4 7 -9 0 -12 -18 -4
-26 -2 -29 12 -22 12 6 23 40 36 111 18 95 21 103 47 113 15 6 27 16 27 22 0
7 10 14 23 16 18 2 22 9 21 35 -1 23 2 31 10 26 6 -4 18 -6 27 -5 10 2 19 -10
27 -36 6 -21 23 -49 37 -62 14 -13 25 -29 25 -36 0 -6 7 -14 15 -17 8 -4 28
-25 45 -48 17 -24 53 -62 81 -86 28 -24 47 -43 43 -43 -4 0 -2 -6 5 -12 6 -7
15 -13 19 -13 4 0 25 -11 47 -24 42 -26 45 -27 73 -31 11 -1 12 -3 4 -7 -7 -3
1 -14 23 -29 20 -13 38 -24 41 -24 11 0 74 -47 69 -52 -2 -2 12 -12 33 -21 20
-9 51 -29 68 -44 35 -31 54 -43 131 -83 29 -15 50 -30 47 -33 -3 -3 15 -13 40
-22 25 -10 57 -28 72 -41 14 -13 31 -24 38 -24 8 0 17 -7 20 -16 4 -9 13 -14
22 -10 8 3 13 2 10 -3 -3 -4 6 -13 19 -19 19 -9 25 -9 25 1 0 6 5 4 11 -6 6
-9 14 -15 19 -12 5 3 19 0 30 -7 17 -11 22 -11 29 0 6 10 13 10 37 -3 16 -8
37 -15 47 -15 10 0 15 -4 12 -10 -3 -5 2 -10 12 -10 10 0 54 -12 98 -26 96
-30 111 -34 150 -42 26 -4 28 -6 10 -13 -14 -5 -8 -8 25 -8 45 -1 73 -12 70
-26 -1 -4 11 -16 27 -27 27 -19 27 -19 3 -13 -14 4 -40 13 -58 22 -46 20 -64
11 -59 -29 2 -25 12 -37 43 -54 56 -31 112 -41 120 -21 3 9 1 25 -6 36 -10 20
-8 21 40 21 28 0 49 -4 46 -8 -2 -4 8 -8 22 -7 17 0 28 -6 28 -15 1 -8 2 -23
3 -33 0 -10 6 -15 11 -12 6 3 10 -1 10 -10 0 -9 -5 -13 -10 -10 -6 4 -5 -4 1
-19 7 -14 15 -23 20 -21 4 3 10 -3 13 -12 8 -26 28 -192 30 -238 l1 -40 40 2
c39 2 39 2 10 -7 -16 -6 -64 -12 -105 -16 -41 -3 -91 -10 -110 -14 -19 -5 -55
-5 -80 -1 -25 4 -117 8 -205 9 -88 1 -185 7 -215 13 -57 12 -110 34 -122 52
-9 15 2 38 16 30 6 -3 8 -3 4 2 -4 4 -1 22 7 40 7 19 11 36 8 39 -3 3 6 10 20
15 32 12 41 28 39 66 -2 35 14 66 26 49 5 -9 10 -8 19 1 10 10 9 14 -2 19 -17
6 -20 32 -6 40 14 9 41 -5 41 -21 0 -8 5 -11 11 -8 6 4 8 13 5 21 -3 8 0 11 9
8 12 -5 12 -10 -2 -32 -9 -15 -13 -24 -8 -20 4 4 14 3 22 -4 7 -6 16 -8 20 -4
3 3 1 6 -5 6 -7 0 -12 7 -12 16 0 14 3 14 15 4 8 -7 15 -18 15 -24 0 -6 10
-16 23 -21 12 -6 22 -17 22 -25 0 -8 8 -27 18 -41 12 -18 20 -55 24 -113 l6
-86 28 0 c27 0 28 1 28 58 -1 69 -34 236 -41 207 -5 -18 -6 -18 -7 3 0 12 -10
31 -21 42 -11 11 -17 26 -14 35 4 8 1 15 -5 15 -6 0 -11 9 -11 20 0 26 25 26
43 0 8 -11 16 -17 20 -14 3 3 15 0 26 -8 12 -8 18 -18 14 -21 -3 -4 1 -7 9 -7
9 0 18 -4 20 -9 4 -11 151 -40 158 -31 11 15 50 30 79 30 27 0 31 4 31 26 0
21 -3 25 -17 19 -10 -5 -36 -11 -58 -15 -22 -4 -31 -9 -20 -10 11 -2 2 -6 -20
-9 -46 -7 -77 -3 -69 10 3 5 -6 13 -19 18 -14 6 -28 15 -32 21 -3 5 -11 8 -16
5 -5 -4 -9 -1 -9 6 0 8 -6 7 -18 -4 -21 -19 -48 -7 -39 17 4 9 1 16 -6 16 -8
0 -6 4 3 10 11 7 -2 10 -43 10 -36 0 -56 -4 -52 -10 3 -5 -2 -10 -13 -10 -31
0 -166 -51 -179 -68 -7 -9 -13 -27 -14 -41 0 -23 -1 -24 -8 -7 -8 20 -8 20
-13 0 -16 -52 -78 -186 -78 -169 -1 11 -8 0 -17 -25 -8 -25 -24 -56 -34 -69
-10 -13 -16 -27 -13 -32 3 -5 1 -9 -5 -9 -6 0 -13 -11 -17 -25 -3 -14 -10 -22
-15 -19 -5 3 -6 11 -2 17 3 7 -3 3 -15 -7 -12 -11 -20 -21 -18 -23 5 -5 -41
-55 -47 -51 -7 4 -41 -40 -65 -85 -11 -22 -23 -33 -27 -27 -3 5 -11 8 -16 5
-5 -4 -9 -1 -9 4 0 6 -18 40 -40 76 -22 36 -37 65 -34 65 4 0 -4 11 -18 25
-13 13 -35 45 -48 70 -13 26 -34 57 -47 68 -12 12 -23 26 -23 31 0 4 -12 23
-27 41 -16 18 -35 41 -44 51 -26 31 -105 98 -135 115 -16 8 -38 20 -49 26 -11
6 -35 17 -52 23 -18 7 -31 16 -28 20 3 5 -7 12 -23 18 -40 14 -202 145 -202
163 0 5 -17 25 -39 44 -21 19 -44 49 -51 65 -7 16 -16 27 -20 25 -10 -6 -90
156 -90 181 0 10 -3 15 -6 11 -6 -5 -54 56 -54 69 0 10 -47 74 -51 69 -3 -2
-22 32 -43 76 -21 44 -35 83 -31 87 4 4 10 1 12 -5 7 -20 23 -15 23 6 0 11 5
23 12 27 6 4 8 3 4 -4 -10 -16 15 -27 26 -11 7 10 8 8 3 -8 -3 -13 -2 -31 4
-40 9 -16 10 -15 11 8 0 14 5 30 12 37 7 7 9 12 5 12 -3 0 0 20 7 45 8 25 10
45 5 45 -5 0 -12 -13 -15 -30 -7 -34 -24 -41 -24 -9 0 18 -5 21 -28 17 l-28
-4 15 62 c9 36 19 57 23 51 6 -9 8 -9 8 -1 0 12 43 33 74 38 9 1 17 6 18 12 3
17 150 154 159 148 5 -3 9 -16 9 -30z m1960 -1251 c0 -5 13 -15 29 -24 28 -16
48 -45 72 -101 6 -16 17 -28 25 -28 8 0 14 -5 14 -11 0 -6 12 -26 27 -46 28
-37 38 -63 22 -63 -5 0 -9 5 -9 10 0 6 -7 10 -15 10 -8 0 -15 -4 -15 -9 0 -4
-21 -14 -47 -21 -27 -6 -53 -14 -60 -15 -7 -3 -10 2 -6 11 3 7 0 14 -6 14 -6
0 -11 -7 -11 -15 0 -8 -4 -15 -9 -15 -4 0 -6 11 -3 25 2 14 11 25 18 25 8 0
14 4 14 9 0 5 -10 7 -22 3 -18 -4 -20 -2 -14 14 12 31 12 39 -1 37 -14 -3 -15
2 -17 117 0 44 2 80 7 80 4 0 7 -3 7 -7z"/>
<path d="M2564 6133 c-10 -10 -28 -19 -38 -21 -28 -5 -66 -32 -66 -47 0 -7 21
-18 48 -24 26 -7 54 -16 62 -22 12 -8 10 -9 -7 -4 -12 3 -32 8 -45 10 -13 3
-35 7 -51 11 l-27 6 35 -77 c19 -43 35 -89 35 -104 0 -20 2 -23 10 -11 8 13
10 13 10 -1 0 -9 6 -22 14 -28 16 -14 14 -20 47 161 13 70 27 124 31 122 4 -3
8 6 8 20 0 20 -5 26 -23 26 -13 0 -32 -8 -43 -17z"/>
<path d="M3693 8174 c-15 -20 -47 -57 -70 -82 -24 -26 -43 -51 -43 -57 0 -5
-18 -30 -40 -54 -22 -24 -38 -46 -35 -49 2 -2 -7 -19 -20 -37 -14 -17 -25 -38
-25 -45 0 -7 -3 -10 -7 -7 -3 4 -26 -32 -50 -80 -24 -49 -47 -95 -52 -103 -15
-25 -50 -120 -45 -120 10 0 34 29 32 37 -4 16 14 53 23 48 5 -4 9 0 9 7 0 15
69 150 81 158 6 4 21 31 73 125 6 11 16 24 23 30 7 5 27 38 46 71 19 34 42 70
51 80 26 29 86 114 81 114 -2 0 -17 -16 -32 -36z"/>
<path d="M3972 8183 c-11 -16 -23 -38 -27 -51 -4 -13 -9 -21 -13 -18 -3 4 -15
-15 -26 -42 -23 -53 -58 -102 -74 -102 -10 0 -31 -43 -37 -76 -2 -11 -4 -21
-5 -24 -1 -3 -2 -9 -1 -13 1 -5 -3 -25 -8 -45 -6 -20 -12 -46 -14 -57 -5 -27
-25 -72 -27 -60 -3 26 -43 -101 -60 -190 -11 -55 -20 -101 -20 -102 0 -2 -6
-3 -13 -3 -31 0 -40 65 -21 150 3 14 8 37 11 53 3 15 9 27 13 27 5 0 16 26 26
58 9 31 24 70 31 86 8 15 10 26 5 22 -5 -3 -20 -30 -32 -61 -12 -30 -26 -53
-30 -50 -7 4 -16 -12 -25 -45 -1 -3 -9 -22 -19 -42 -9 -21 -16 -40 -16 -43 0
-3 -6 -18 -15 -35 -8 -16 -15 -44 -16 -62 -1 -29 -2 -30 -8 -9 -6 21 -9 17
-23 -30 -10 -30 -18 -58 -19 -64 0 -5 -6 -19 -11 -29 -9 -16 -7 -18 11 -13 17
4 21 1 21 -20 0 -14 -4 -22 -11 -18 -6 4 -13 -2 -16 -14 -3 -12 -12 -21 -19
-21 -9 0 -14 -13 -15 -37 -1 -33 -2 -35 -8 -13 -7 23 -8 23 -15 -13 -4 -20 -4
-42 -1 -47 3 -6 0 -10 -7 -10 -10 0 -10 -2 1 -9 10 -6 10 -13 2 -28 -11 -22
-16 -48 -26 -140 -6 -55 -5 -63 10 -63 15 0 16 -3 4 -22 -21 -34 -10 -114 14
-111 12 0 16 -4 13 -12 -3 -9 0 -12 9 -9 21 8 23 27 20 149 -1 61 0 115 4 120
10 16 17 -206 8 -250 -4 -22 -8 -51 -8 -65 0 -24 -1 -24 -9 -4 -6 16 -15 20
-34 17 -14 -3 -26 -8 -26 -10 0 -3 12 -3 26 0 25 4 26 3 20 -32 -3 -20 -6 -44
-6 -53 0 -12 -8 -18 -22 -18 -12 0 -18 -3 -15 -7 4 -3 2 -12 -3 -18 -8 -10
-13 -62 -20 -230 -1 -25 -3 -27 -9 -10 -6 14 -9 1 -13 -42 -3 -34 -10 -68 -14
-75 -9 -15 -11 -19 -19 -67 -4 -19 -11 -45 -16 -58 -5 -13 -9 -48 -9 -76 0
-29 -3 -70 -7 -92 -6 -36 -7 -38 -14 -15 -6 21 -7 19 -9 -15 -10 -170 -13
-207 -23 -222 -5 -7 -5 -13 0 -13 4 0 3 -4 -3 -8 -12 -7 -25 -222 -13 -222 3
0 16 11 29 25 13 14 26 23 28 20 6 -6 30 26 28 37 0 3 23 25 52 48 28 23 52
46 52 52 0 5 11 24 25 42 14 18 25 39 25 46 0 7 3 10 7 6 10 -10 61 165 77
264 9 56 15 73 16 50 1 -22 7 -5 15 50 7 47 11 88 9 92 -4 7 3 59 21 148 14
71 25 148 24 175 -2 26 -2 27 -5 5 -18 -120 -38 -220 -49 -245 -8 -16 -12 -32
-9 -36 2 -4 -15 -19 -37 -35 -23 -15 -36 -30 -29 -32 6 -2 18 4 26 14 14 17
15 14 10 -34 -3 -30 -1 -50 4 -47 5 3 -1 -21 -13 -54 -12 -33 -24 -58 -27 -56
-3 2 -6 -8 -7 -22 -1 -19 1 -22 8 -12 15 24 11 -17 -6 -58 -8 -19 -15 -46 -15
-60 0 -13 -4 -22 -9 -19 -5 3 -11 -8 -14 -24 -4 -17 -8 -38 -11 -48 -2 -9 -5
-20 -5 -24 -1 -5 -8 -8 -16 -8 -11 0 -14 8 -11 33 8 58 22 224 25 289 1 28 9
45 31 65 32 28 41 59 14 49 -14 -5 -15 1 -10 48 6 42 4 54 -6 52 -27 -4 -34
-16 -36 -58 -4 -77 -23 -241 -38 -322 -8 -43 -14 -106 -15 -140 0 -33 -3 -55
-6 -48 -7 18 -33 -33 -33 -65 0 -13 -4 -22 -9 -18 -6 3 -14 -3 -20 -12 -9 -16
-10 -16 -11 4 0 12 4 23 9 25 5 2 11 21 13 43 3 22 3 32 1 23 -2 -10 -7 -18
-11 -18 -11 0 -1 94 11 102 7 4 10 31 9 64 -1 34 2 60 9 64 6 4 13 27 16 51 2
24 7 51 10 59 3 8 7 48 9 87 1 40 8 81 13 91 6 11 8 22 4 25 -3 3 -2 14 2 24
4 10 7 28 6 40 -1 13 6 26 18 33 12 6 20 14 20 18 -1 4 -1 18 0 32 1 20 3 22
11 10 9 -13 10 -13 11 0 1 8 1 18 0 23 0 4 4 7 9 7 6 0 8 10 4 24 -4 18 0 28
15 38 15 9 21 24 22 53 1 23 4 30 6 18 6 -31 23 -29 23 2 0 14 -4 25 -9 25 -4
0 -7 10 -6 23 1 12 3 41 4 65 0 26 5 41 11 37 10 -6 14 26 10 73 -1 13 4 30
12 39 11 13 11 17 0 21 -10 3 -10 7 2 16 8 6 20 39 25 73 5 34 14 70 19 80 6
10 9 38 7 63 -2 25 -6 79 -9 120 l-5 75 13 -60 c8 -33 15 -55 16 -50 4 23 40
-146 46 -218 4 -47 11 -74 16 -69 8 8 12 115 7 202 0 13 4 26 11 28 7 3 4 9
-7 17 -35 26 -20 174 21 197 9 5 16 17 16 28 0 10 4 20 9 22 5 2 12 30 15 63
4 33 9 76 13 95 5 33 4 34 -10 15 -12 -15 -11 -5 5 38 12 31 23 55 25 53 2 -2
0 -46 -6 -97 -5 -52 -8 -120 -6 -151 2 -32 0 -60 -6 -63 -12 -8 -12 -26 0 -22
11 2 11 -1 10 -55 l-2 -43 -7 40 c-5 28 -8 32 -9 15 -1 -14 -8 -79 -16 -145
-17 -141 -18 -158 -6 -151 4 3 3 -15 -2 -40 -8 -35 -13 -42 -18 -28 -6 17 -7
16 -12 -6 -9 -40 -47 -320 -49 -369 -5 -73 17 -58 31 21 7 40 16 93 21 118 5
25 10 65 10 90 2 38 3 41 10 20 8 -25 8 -24 9 5 1 34 29 183 36 195 3 4 7 32
11 61 3 30 7 63 9 74 2 11 4 45 4 75 1 39 4 51 11 40 7 -11 10 -5 10 24 0 21
5 56 12 78 9 32 9 41 -2 48 -10 6 -11 12 -3 22 7 8 13 74 15 161 2 110 0 144
-8 132 -18 -24 -26 -18 -10 8 15 23 26 79 47 241 8 63 16 92 20 80 7 -17 8
-16 8 4 1 13 10 60 22 105 11 45 22 89 24 97 2 8 6 27 10 43 4 15 5 27 2 27
-3 0 -14 -12 -25 -27z"/>
<path d="M4629 8128 c-40 -8 -46 -13 -46 -34 0 -19 5 -24 24 -24 14 0 21 4 18
10 -4 6 -11 8 -16 5 -5 -4 -9 -1 -9 4 0 6 14 11 31 11 26 0 29 -3 20 -14 -10
-12 4 -14 90 -14 55 0 103 -3 107 -6 3 -3 -10 -6 -29 -7 -30 -1 26 -13 181
-38 25 -4 51 -10 58 -14 24 -16 12 1 -14 18 -24 15 -42 22 -67 24 -5 1 -6 5
-2 10 4 8 -41 29 -80 37 -5 1 -35 9 -65 17 -80 21 -149 27 -201 15z"/>
<path d="M4992 8086 c26 -13 45 -25 42 -28 -2 -3 12 -13 33 -21 56 -23 115
-62 107 -70 -4 -4 -1 -7 7 -7 8 0 31 -16 53 -35 21 -20 49 -35 63 -35 13 0 22
-4 19 -8 -3 -5 8 -24 25 -43 16 -19 33 -47 38 -64 5 -16 10 -23 10 -15 2 16
33 -47 34 -67 0 -7 4 -13 9 -13 4 0 8 -6 8 -14 0 -7 8 -20 17 -27 15 -12 16
-12 9 6 -5 11 -11 30 -13 43 -3 12 -10 22 -15 22 -5 0 -7 9 -3 19 3 11 -1 26
-10 35 -9 9 -13 16 -9 16 3 0 1 7 -6 15 -7 8 -10 22 -6 30 4 11 -3 19 -22 27
-24 10 -25 12 -7 15 11 2 27 7 35 10 8 3 20 5 25 4 6 -2 -1 9 -14 23 -13 14
-28 23 -32 20 -5 -3 -9 -1 -9 4 0 5 -15 17 -32 26 -18 8 -26 16 -18 16 9 0 5
6 -10 17 -14 10 -27 18 -30 18 -3 0 -22 11 -43 23 -36 23 -54 29 -87 31 -12 1
-12 3 -2 10 19 11 -35 23 -168 35 l-45 5 47 -23z"/>
<path d="M3556 7865 c-4 -16 -11 -23 -18 -19 -6 4 -8 3 -5 -3 4 -6 0 -16 -8
-23 -16 -13 -21 -35 -7 -26 5 3 8 -11 8 -30 -1 -18 -5 -34 -9 -34 -5 0 -6 11
-3 26 6 23 5 24 -14 14 -13 -7 -19 -18 -16 -26 3 -8 2 -14 -3 -14 -5 0 -11
-14 -15 -30 -3 -17 -11 -29 -18 -28 -7 2 -12 -3 -10 -9 1 -7 -3 -13 -10 -13
-6 0 -9 -3 -5 -6 3 -3 -3 -31 -15 -62 l-21 -55 21 -16 c22 -17 33 -95 17 -120
-5 -9 -2 -18 8 -26 9 -7 14 -15 10 -18 -3 -4 1 -7 10 -7 9 0 17 -5 17 -12 0
-16 10 -4 14 18 3 11 9 32 15 47 14 35 14 48 0 25 -5 -10 -15 -18 -21 -18 -9
0 -9 3 0 12 7 7 12 22 12 34 0 12 4 24 9 26 4 2 11 20 15 41 6 31 4 37 -11 37
-13 1 -11 4 9 15 19 11 26 21 23 36 -3 15 0 19 10 15 9 -3 15 1 15 9 0 8 9 24
20 35 11 11 20 16 20 10 0 -18 18 -11 25 10 3 11 14 27 23 37 9 9 17 19 17 22
1 3 11 26 24 49 12 24 20 50 17 58 -3 8 -2 13 3 10 5 -3 11 1 15 9 3 8 0 17
-5 21 -14 8 -38 -16 -44 -44 -14 -76 -82 -76 -72 0 4 32 3 37 -8 28 -10 -8
-15 -8 -21 1 -5 8 -3 9 6 4 9 -5 11 -4 6 3 -12 19 -23 14 -30 -13z"/>
<path d="M3290 6670 c0 -11 -4 -20 -9 -20 -5 0 -12 -8 -15 -17 -3 -10 -4 -6
-2 10 2 15 0 30 -4 32 -4 3 -13 -29 -19 -71 -14 -97 -14 -104 4 -104 8 0 15
-4 15 -10 0 -5 5 -10 11 -10 5 0 7 6 3 13 -5 8 -2 8 9 -2 24 -19 21 -33 -5
-26 -13 3 -18 3 -12 -2 12 -9 17 -73 6 -72 -4 1 -9 0 -12 -1 -33 -12 -36 -7
-34 49 l3 56 -9 -55 c-4 -30 -8 -82 -9 -115 0 -47 2 -56 10 -42 6 11 9 31 6
46 -3 15 -2 33 4 41 5 8 9 11 9 6 0 -5 7 -3 15 4 8 7 15 8 15 2 0 -5 -7 -15
-15 -22 -8 -7 -15 -16 -15 -21 0 -12 27 -11 35 1 4 6 -1 7 -12 3 -15 -5 -14
-2 4 16 12 11 27 21 33 21 5 0 10 10 9 23 0 20 -1 21 -8 3 -7 -19 -8 -19 -14
3 -3 15 0 24 10 28 11 4 13 14 9 35 -3 16 -2 27 2 24 4 -3 8 5 9 17 0 12 2 29
4 37 2 8 -2 14 -8 13 -7 -2 -13 2 -13 7 0 6 6 10 13 10 8 0 7 4 -3 10 -13 8
-12 10 3 10 9 0 17 5 17 11 0 6 -9 8 -22 4 -22 -6 -22 -6 -4 9 11 9 16 16 10
16 -5 0 -2 5 6 10 11 7 11 10 2 10 -7 0 -11 4 -8 9 3 5 -1 11 -9 15 -10 4 -15
-1 -15 -14z"/>
<path d="M4320 6376 c0 -7 16 -30 35 -50 19 -21 35 -39 35 -40 0 -2 -11 -1
-25 1 -13 3 -24 8 -23 12 2 22 -8 32 -54 55 -52 26 -103 34 -110 17 -1 -5 -28
-10 -58 -12 -30 -1 -59 -5 -65 -9 -18 -13 -144 -18 -149 -6 -3 7 -9 6 -18 -4
-7 -8 -20 -16 -28 -18 -22 -5 -40 -22 -40 -38 0 -15 8 -17 55 -14 24 1 28 -1
18 -11 -18 -18 -16 -39 2 -39 8 0 15 9 15 20 0 25 28 40 77 41 30 0 34 2 18 9
-20 8 -19 9 1 9 12 1 37 3 55 6 29 4 30 3 9 -4 -18 -7 2 -9 70 -10 84 -1 102
-4 155 -31 60 -30 118 -39 130 -20 4 6 11 8 16 4 14 -8 70 6 63 17 -3 5 -1 9
4 9 6 0 -3 14 -19 31 -16 17 -29 38 -29 46 0 8 -4 11 -10 8 -5 -3 -10 1 -10 9
0 8 -4 18 -10 21 -12 7 7 -47 19 -55 15 -9 22 -58 9 -66 -6 -4 -8 -3 -5 3 4 6
-3 13 -14 16 -12 3 -19 9 -16 14 3 5 -8 19 -24 32 -16 13 -29 30 -29 38 0 8
-4 11 -10 8 -5 -3 -10 -1 -10 4 0 6 -7 11 -15 11 -8 0 -15 -6 -15 -14z"/>
<path d="M3697 6333 c-4 -3 -7 -19 -7 -35 0 -17 -4 -27 -10 -23 -5 3 -11 1
-11 -4 -1 -6 -2 -14 -4 -18 -11 -43 -16 -67 -21 -123 -3 -36 -6 -74 -6 -85 1
-10 -2 -24 -7 -30 -4 -5 -14 -36 -21 -69 -10 -44 -16 -54 -21 -40 -7 17 -8 17
-8 -3 -1 -24 -23 -111 -40 -158 -11 -30 -11 -30 6 -9 52 62 67 85 99 151 18
40 34 77 34 83 0 5 5 10 10 10 6 0 10 7 10 15 0 8 -5 15 -11 15 -5 0 -8 -4 -5
-9 4 -5 -4 -7 -16 -3 -14 3 -19 1 -14 -6 3 -6 2 -13 -4 -17 -13 -8 -13 -6 5
90 8 44 15 87 15 95 0 13 1 13 10 0 8 -12 10 -9 10 12 0 21 7 29 35 39 19 7
38 21 41 32 8 26 -5 36 -20 14 -7 -9 -21 -17 -31 -17 -15 0 -17 7 -13 50 5 53
5 54 -5 43z"/>
<path d="M5380 6058 c0 -5 -3 -7 -7 -5 -5 3 -14 -1 -21 -9 -10 -11 -10 -14 0
-15 7 0 3 -5 -8 -11 -26 -12 -48 -54 -34 -63 6 -4 10 -1 10 4 0 6 8 11 18 10
10 0 12 -3 5 -6 -7 -2 -13 -13 -13 -24 0 -10 -5 -19 -10 -19 -6 0 -5 -8 2 -20
7 -11 18 -18 24 -16 6 2 18 -4 27 -15 9 -10 25 -19 34 -19 15 0 16 -2 3 -10
-17 -11 -9 -13 33 -10 15 1 35 -4 44 -12 19 -15 23 -15 34 4 7 10 9 10 9 -2 0
-13 1 -13 10 0 14 22 12 30 -12 41 -19 8 -15 9 17 4 22 -2 65 -5 95 -6 46 -1
50 -3 25 -9 -16 -4 -25 -8 -18 -9 252 -24 263 -26 263 -46 0 -11 -13 -15 -50
-15 -27 0 -50 -5 -50 -10 0 -6 17 -8 43 -4 31 4 38 3 27 -5 -12 -9 -11 -11 8
-11 13 0 20 4 17 10 -4 6 5 10 20 10 14 0 36 7 49 15 13 9 36 15 52 14 45 -3
54 0 54 15 0 8 -6 17 -12 19 -10 4 -9 8 2 16 8 6 11 11 6 11 -5 0 -3 6 3 14
17 20 -11 38 -51 32 -105 -16 -245 -26 -286 -21 -132 17 -193 29 -198 37 -4 6
7 8 27 5 31 -4 34 -2 35 22 1 14 -1 20 -3 14 -7 -20 -33 -15 -33 6 0 11 -6 22
-12 24 -7 3 -3 6 8 6 12 1 35 8 50 16 l29 15 -25 0 c-20 0 -22 2 -10 10 11 7
3 10 -30 11 -131 5 -151 4 -160 -11 -6 -9 -10 -10 -10 -3 0 7 7 16 16 21 12 6
8 9 -15 9 -17 0 -31 -4 -31 -9z"/>
<path d="M4354 5983 c3 -4 -1 -14 -10 -24 -11 -12 -15 -29 -12 -50 4 -22 0
-33 -11 -37 -9 -3 -20 -11 -26 -17 -5 -6 -29 -18 -53 -25 -29 -9 -38 -16 -30
-22 10 -6 10 -8 -2 -9 -8 0 -24 -3 -35 -6 -66 -17 -372 -12 -361 5 4 7 -26 39
-31 35 -2 -2 -10 -3 -19 -3 -11 0 -14 4 -7 13 5 6 10 24 11 38 2 19 -4 28 -24
37 -21 10 -25 17 -20 40 4 21 1 19 -13 -11 -10 -20 -20 -35 -23 -32 -2 3 -11
-13 -18 -35 -7 -22 -16 -40 -20 -40 -4 0 -18 -20 -31 -44 -13 -25 -26 -43 -29
-41 -14 9 -27 -31 -18 -55 7 -19 11 -21 18 -11 4 8 6 21 3 30 -4 13 -3 13 5 2
8 -11 10 -11 15 0 3 8 6 4 6 -9 1 -15 -3 -21 -11 -16 -7 4 -8 3 -4 -4 4 -7 14
-12 22 -12 8 0 14 -6 14 -12 0 -9 4 -8 10 2 6 10 10 11 10 3 0 -8 13 -13 31
-13 16 0 28 4 25 8 -2 4 5 9 16 9 16 2 18 -1 9 -10 -19 -19 -12 -28 12 -13 12
7 37 16 55 20 27 5 34 2 40 -15 7 -19 9 -19 21 -5 7 9 17 13 22 10 5 -3 9 -1
9 3 0 5 19 10 43 11 50 3 118 22 112 32 -2 3 19 12 48 19 77 18 147 44 147 53
0 4 11 8 24 8 14 0 28 5 31 10 3 6 18 10 33 11 l27 1 -25 8 c-20 6 -14 8 27 9
40 1 51 -2 47 -12 -3 -8 2 -19 10 -26 13 -11 14 -9 6 20 -12 39 -8 46 29 51
17 2 28 0 25 -4 -3 -5 0 -16 7 -24 10 -12 9 -13 -5 -8 -9 3 -16 1 -16 -4 0
-22 19 -22 39 -1 l20 22 -24 19 c-18 14 -24 27 -21 43 3 13 -2 29 -10 36 -8 6
-14 8 -14 3 0 -4 -5 -3 -12 4 -7 7 -22 12 -34 12 -12 0 -24 5 -26 12 -2 6 -12
12 -22 14 -10 1 -15 0 -12 -3z"/>
<path d="M3488 5626 c-18 -19 -64 -69 -103 -110 -38 -42 -75 -76 -82 -76 -6 0
-20 -11 -31 -25 -11 -13 -21 -22 -24 -20 -5 6 10 -100 44 -292 12 -73 25 -127
29 -122 3 6 10 -11 13 -37 4 -27 20 -67 34 -89 44 -65 137 -152 177 -165 20
-7 34 -15 31 -18 -7 -6 13 -32 25 -32 21 0 7 40 -21 60 -16 12 -30 27 -30 34
0 6 -20 29 -44 51 -25 22 -43 42 -40 46 2 4 0 10 -6 14 -5 3 -10 17 -10 31 0
14 -4 23 -9 20 -4 -3 -8 2 -8 12 0 58 -4 76 -12 63 -11 -16 -17 10 -29 119 -9
86 -5 115 14 99 16 -13 16 -16 18 81 1 46 5 64 14 63 6 -2 12 2 12 7 0 6 -4
10 -10 10 -16 0 -12 27 17 128 14 52 32 96 40 99 7 3 13 14 13 25 0 12 -4 17
-12 12 -7 -4 -2 5 11 19 36 39 18 33 -21 -7z"/>
<path d="M4596 5274 c-9 -8 -16 -12 -16 -7 0 18 -60 -111 -66 -142 -8 -42 3
-75 24 -76 10 0 12 -3 5 -5 -7 -3 4 -21 28 -46 23 -24 39 -50 39 -64 0 -31 44
-54 99 -51 22 1 41 4 41 8 0 4 10 10 23 12 19 4 19 4 -5 6 -15 0 -30 6 -34 13
-4 7 -3 8 4 4 7 -4 12 -3 12 3 0 10 -46 9 -57 -2 -13 -13 -22 -6 -65 51 -23
31 -47 57 -52 57 -5 0 -10 8 -12 19 -1 10 -7 23 -12 28 -11 11 16 100 28 93 4
-3 11 10 15 28 9 36 12 46 15 50 4 4 8 37 5 37 -2 0 -11 -7 -19 -16z"/>
<path d="M4690 5082 c0 -7 -4 -11 -9 -7 -15 9 -22 -12 -15 -42 7 -25 8 -25 15
-8 7 19 8 19 8 -2 1 -12 6 -25 12 -28 20 -13 123 -15 130 -4 4 6 12 8 18 4 9
-5 7 -11 -5 -20 -11 -8 -15 -19 -11 -30 6 -15 10 -15 24 -4 9 8 19 14 22 14 3
0 5 3 4 8 -2 4 5 7 14 7 9 0 14 -3 10 -6 -3 -3 2 -14 11 -23 19 -20 67 -21 85
-2 10 11 6 12 -20 6 -26 -5 -33 -3 -33 9 0 9 8 16 18 16 15 0 15 2 2 11 -12 9
-11 10 8 6 25 -6 31 17 6 27 -8 3 -12 2 -9 -4 3 -6 1 -10 -4 -10 -6 0 -11 5
-11 11 0 7 -9 9 -24 5 -15 -4 -28 0 -36 9 -7 8 -20 15 -29 15 -13 0 -14 2 -2
9 11 7 7 10 -15 13 -17 2 -28 8 -26 16 2 12 -10 15 -90 17 -34 0 -48 -3 -48
-13z"/>
<path d="M5192 5074 c-6 -3 -10 -10 -7 -15 3 -4 -6 -11 -20 -15 -14 -3 -30
-14 -35 -24 -10 -18 -90 -44 -90 -30 0 5 6 11 13 13 6 3 0 6 -15 6 -34 1 -34
-3 -5 -64 13 -27 23 -59 21 -72 -1 -14 3 -23 11 -23 15 0 25 22 25 56 0 18 5
24 21 24 19 0 60 30 42 30 -24 2 65 30 93 30 31 0 39 -8 35 -32 0 -4 6 -5 15
-1 8 3 12 8 10 11 -3 3 1 10 9 16 7 6 17 23 20 38 6 25 5 27 -22 25 -18 -1
-27 2 -25 11 1 7 -8 12 -20 12 -13 0 -32 2 -43 5 -11 2 -26 2 -33 -1z"/>
<path d="M3363 4806 c4 -22 14 -44 23 -49 11 -6 13 -12 5 -16 -7 -5 -9 -20 -5
-40 7 -33 44 -61 81 -61 15 0 16 -2 3 -10 -8 -5 -13 -10 -10 -11 3 0 12 -2 20
-4 8 -2 26 -6 40 -9 14 -3 26 -10 28 -16 2 -5 8 -10 13 -10 6 0 7 5 3 11 -5 9
3 10 29 5 21 -4 38 -2 42 4 4 6 -5 10 -22 11 l-28 1 30 8 c17 4 24 8 17 9 -8
1 -10 6 -6 14 6 8 3 8 -9 -1 -14 -12 -20 -11 -42 6 -14 11 -50 28 -81 38 -52
16 -92 44 -46 32 18 -5 20 -3 12 11 -12 24 -35 42 -57 45 -10 2 -19 8 -19 14
-1 7 -3 14 -4 17 -1 3 -3 9 -4 14 0 5 -5 13 -10 18 -5 5 -6 -9 -3 -31z"/>
<path d="M4875 4571 c15 -6 7 -10 -35 -16 -30 -4 -64 -13 -75 -20 -11 -7 -36
-16 -55 -20 -53 -12 -135 -52 -119 -58 10 -4 8 -6 -4 -6 -10 -1 -33 -12 -51
-26 -18 -14 -35 -23 -38 -20 -3 3 -19 -8 -36 -25 -18 -16 -40 -30 -50 -30 -24
0 -59 -26 -49 -37 16 -15 387 4 387 20 0 5 13 7 29 5 17 -2 28 -1 26 3 -7 11
34 19 98 19 44 0 56 3 51 13 -5 9 -4 9 5 1 7 -7 53 -9 127 -6 65 2 144 -1 182
-8 37 -6 115 -14 173 -16 89 -4 107 -2 112 10 4 11 -1 18 -18 22 -14 3 -22 10
-19 15 3 5 -5 9 -19 9 -45 0 -219 79 -177 81 14 0 -22 19 -45 23 -5 1 -17 6
-25 11 -8 6 -44 20 -79 31 -35 12 -58 24 -50 27 8 3 -3 6 -23 6 -21 1 -38 -3
-38 -8 0 -21 -57 -29 -111 -16 -37 8 -48 14 -34 17 11 3 2 6 -20 6 -30 0 -35
-1 -20 -7z"/>
<path d="M3200 2644 c-6 -14 -10 -30 -10 -35 0 -5 -4 -9 -10 -9 -5 0 -10 -5
-10 -11 0 -32 -65 -139 -100 -165 -21 -16 -36 -33 -33 -38 3 -4 9 -2 14 5 5 8
9 9 9 3 0 -6 -10 -19 -22 -30 -19 -15 -20 -16 -9 -1 17 22 14 22 -46 -8 -61
-29 -81 -52 -37 -41 78 19 149 65 207 134 15 19 27 30 27 25 0 -4 11 15 24 42
16 34 20 54 14 62 -6 7 -8 31 -6 53 4 47 1 50 -12 14z"/>
<path d="M5025 757 c-20 -22 -28 -41 -35 -79 -7 -36 -6 -38 19 -38 18 0 22 3
12 9 -9 6 -10 11 -2 15 6 4 11 16 11 27 0 15 7 19 33 20 30 1 31 1 7 9 -20 6
-14 8 25 8 39 0 45 -2 25 -8 -21 -7 -22 -8 -5 -10 11 -1 34 -2 50 -2 26 0 27
0 5 -5 -43 -9 -69 -63 -30 -63 13 0 20 7 20 18 0 25 40 26 62 0 21 -25 22 -19
7 33 -9 28 -21 43 -48 56 -42 20 -141 27 -156 10z"/>
<path d="M4235 9342 c-1 -1 -18 -5 -36 -7 -59 -7 -70 -11 -80 -26 -7 -12 -9
-12 -9 0 0 12 -3 11 -12 -2 -7 -9 -22 -18 -33 -20 -11 -2 -30 -9 -43 -15 -12
-7 -27 -10 -32 -7 -6 4 -9 3 -8 -2 2 -4 -1 -9 -5 -10 -5 -1 -17 -11 -26 -22
-10 -11 -22 -17 -26 -13 -5 4 -5 1 -1 -6 8 -13 -18 -45 -28 -35 -3 4 -6 1 -6
-6 0 -7 3 -11 8 -9 4 3 22 10 39 17 19 7 30 18 26 24 -4 6 0 8 10 4 9 -3 19
-1 23 5 5 7 2 8 -6 3 -9 -5 -11 -4 -6 3 10 16 39 15 30 0 -4 -8 -3 -10 2 -5 5
5 9 14 9 20 0 15 74 43 158 58 37 7 67 16 67 21 0 4 15 8 33 9 17 0 50 6 72
13 40 13 39 13 -38 12 -43 0 -80 -2 -82 -4z"/>
<path d="M4431 9021 l-24 -33 22 12 c36 19 34 6 -4 -27 -19 -17 -36 -29 -38
-27 -2 3 -10 -2 -17 -11 -7 -8 -10 -15 -7 -15 3 0 -6 -12 -21 -27 -25 -25 -25
-27 -7 -34 30 -11 80 -10 92 2 8 8 17 8 32 0 15 -8 21 -9 21 -1 0 6 5 8 10 5
6 -3 10 4 10 17 0 18 -2 20 -10 8 -7 -11 -10 -5 -11 25 0 22 -6 62 -13 90
l-11 50 -24 -34z"/>
<path d="M5200 8510 c-41 -5 -85 -11 -97 -14 -46 -12 -69 -17 -101 -20 -18 -2
-35 -6 -39 -10 -3 -3 -29 -6 -57 -6 -37 0 -47 -3 -36 -10 13 -8 13 -10 -1 -10
-23 0 -126 -47 -135 -61 -5 -8 -3 -9 6 -4 7 4 16 2 20 -5 6 -9 12 -10 26 -1
18 10 18 10 0 11 -11 0 -16 3 -13 7 4 3 20 6 37 5 17 0 28 3 25 8 -3 4 2 11
11 14 22 9 24 8 24 -11 0 -14 2 -15 9 -4 5 8 11 9 15 3 3 -5 18 -7 32 -4 26 5
26 6 9 18 -17 13 -17 14 -2 14 10 0 20 -7 23 -15 7 -17 64 -11 76 8 18 30 25
34 62 40 21 3 36 4 33 1 -7 -8 34 -54 43 -49 13 8 104 8 129 0 18 -5 22 -4 16
5 -6 10 -2 11 17 7 14 -4 40 -2 59 3 29 8 32 7 17 -4 -31 -23 -31 -23 90 -41
23 -4 40 -10 37 -15 -2 -4 12 -10 33 -14 86 -14 193 -42 186 -49 -4 -4 0 -8 9
-8 33 -3 37 -4 36 -13 0 -6 22 -21 49 -35 28 -14 63 -37 79 -51 48 -43 120
-100 125 -100 3 0 25 -18 49 -40 36 -33 41 -42 29 -50 -8 -5 -15 -15 -15 -22
0 -7 -8 -12 -18 -12 -14 2 -15 -1 -7 -11 9 -11 15 -11 31 3 10 9 19 22 19 29
0 7 6 13 14 13 17 0 35 -17 72 -66 15 -18 31 -31 36 -28 5 3 12 -3 15 -15 3
-12 10 -21 15 -21 5 0 6 -5 2 -12 -4 -7 -3 -8 4 -4 6 3 16 -2 21 -13 6 -11 19
-22 28 -25 23 -8 45 -53 29 -60 -6 -2 -3 -5 6 -5 24 -1 31 15 14 32 -8 8 -12
17 -9 21 4 3 1 6 -5 6 -16 0 -93 70 -87 80 2 4 -4 15 -15 25 -11 10 -20 15
-20 11 0 -3 -21 15 -46 41 -25 27 -49 48 -54 48 -4 0 -28 18 -52 40 -23 22
-61 53 -83 68 -22 16 -44 34 -50 41 -5 6 -22 19 -37 29 -45 28 -32 36 18 11
31 -16 52 -21 67 -15 31 10 52 7 49 -7 -1 -7 3 -12 10 -12 6 0 19 -7 28 -15
16 -14 17 -13 15 17 -2 18 -6 40 -9 48 -3 8 -7 25 -9 38 -4 25 -18 42 -38 46
-8 2 -39 15 -69 29 -30 15 -61 27 -67 27 -7 0 -13 4 -13 9 0 12 -153 61 -191
61 -44 0 -113 22 -98 31 19 11 -75 24 -181 24 -52 0 -98 5 -102 10 -5 6 -8 5
-8 -2 0 -9 -19 -12 -67 -11 -57 1 -60 2 -20 5 26 2 45 8 42 14 -4 5 -9 8 -13
7 -4 0 -41 -4 -82 -8z"/>
<path d="M7370 8194 c-8 -2 -31 -5 -51 -8 -48 -8 -117 -69 -140 -124 -23 -53
-24 -105 -4 -163 54 -151 256 -187 363 -64 43 48 52 73 52 144 0 73 -31 135
-86 173 -38 26 -103 47 -134 42z"/>
<path d="M8084 7510 c-83 -37 -146 -150 -129 -232 25 -114 133 -199 235 -185
155 21 241 174 176 312 -28 60 -46 77 -109 104 -59 25 -118 26 -173 1z"/>
<path d="M1320 6959 c0 -4 -11 -10 -25 -13 -60 -15 -125 -117 -125 -196 0
-111 109 -220 221 -220 108 0 219 112 219 220 0 52 -26 106 -75 158 -28 29
-54 49 -58 46 -4 -4 -13 -1 -21 5 -15 13 -136 13 -136 0z"/>
<path d="M6358 6781 c14 -44 29 -78 32 -76 4 3 13 -15 20 -38 8 -23 22 -60 33
-82 11 -22 19 -41 17 -43 -6 -7 23 -61 31 -56 5 3 9 0 9 -6 0 -18 82 -201 88
-195 3 2 24 -32 47 -77 39 -75 65 -107 65 -78 0 6 -4 9 -9 6 -10 -6 -57 111
-48 120 6 6 -25 103 -42 131 -9 14 -10 11 -5 -17 9 -61 -7 -24 -22 50 -14 68
-14 106 1 61 7 -24 17 -26 48 -8 12 6 24 13 25 14 2 1 1 11 -3 22 -5 17 -10
19 -24 11 -10 -5 -21 -6 -25 -3 -3 3 -6 2 -6 -4 0 -13 -46 -5 -58 11 -15 18
-23 66 -12 66 5 0 17 -15 27 -32 14 -28 18 -30 21 -13 3 12 -6 28 -23 43 -15
12 -25 25 -22 28 2 3 18 -9 35 -26 30 -30 49 -40 36 -19 -3 6 0 15 7 20 10 7
7 8 -10 7 -20 -3 -29 7 -55 57 -17 33 -34 61 -38 63 -5 2 -8 12 -8 21 0 24 -8
30 -30 24 -11 -3 -16 -11 -13 -20 3 -8 12 -12 20 -9 8 4 11 1 7 -5 -4 -6 0
-16 7 -21 11 -8 10 -8 -4 -4 -10 3 -24 6 -32 6 -7 0 -23 25 -35 55 -12 30 -26
52 -31 49 -5 -3 -9 6 -9 20 0 19 -5 26 -19 26 -18 0 -18 -4 7 -79z"/>
<path d="M8720 6729 c-56 -25 -86 -53 -112 -103 -61 -118 8 -270 138 -306 128
-36 259 56 272 191 9 95 -54 192 -145 223 -61 21 -99 20 -153 -5z"/>
<path d="M835 6181 c-43 -20 -100 -78 -116 -118 -14 -36 -11 -129 5 -168 33
-79 105 -125 195 -125 73 0 98 9 146 52 154 134 54 381 -151 377 -22 0 -57 -8
-79 -18z"/>
<path d="M9164 5960 c-52 -23 -108 -89 -124 -144 -32 -116 56 -249 180 -271
86 -15 194 46 231 133 76 178 -110 361 -287 282z"/>
<path d="M533 5323 c-51 -17 -118 -89 -127 -134 -18 -92 -1 -163 54 -217 47
-47 85 -64 149 -64 119 -1 208 77 218 192 16 168 -133 281 -294 223z"/>
<path d="M9383 5114 c-75 -38 -123 -115 -123 -199 0 -203 249 -291 383 -135
41 48 51 86 45 163 -5 62 -38 117 -95 155 -49 34 -159 42 -210 16z"/>
<path d="M437 4500 c-78 -25 -147 -120 -147 -203 0 -121 95 -216 218 -217 93
0 159 41 198 125 31 65 30 113 -2 181 -36 76 -94 115 -178 120 -33 2 -74 -1
-89 -6z"/>
<path d="M9432 4253 c-77 -37 -123 -112 -123 -196 0 -65 11 -95 53 -142 104
-119 293 -92 359 50 24 51 24 129 0 180 -19 43 -78 100 -118 116 -39 14 -135
10 -171 -8z"/>
<path d="M450 3529 c-78 -33 -140 -122 -140 -201 0 -54 38 -136 78 -170 71
-60 190 -65 264 -11 51 37 98 120 98 176 0 61 -44 142 -97 178 -38 26 -58 32
-112 35 -36 2 -77 -1 -91 -7z"/>
<path d="M9315 3291 c-59 -29 -81 -50 -109 -107 -31 -62 -33 -107 -7 -168 39
-91 108 -136 205 -136 67 0 93 9 141 51 45 40 75 105 75 163 0 61 -45 144 -98
180 -56 39 -147 47 -207 17z"/>
<path d="M584 2616 c-107 -50 -154 -175 -105 -281 26 -56 50 -80 111 -111 44
-22 61 -25 102 -21 107 13 188 92 196 192 6 79 -4 117 -45 164 -68 80 -165
101 -259 57z"/>
<path d="M9052 2367 c-89 -33 -160 -139 -148 -223 11 -86 65 -157 143 -189
132 -55 293 57 293 205 0 145 -154 255 -288 207z"/>
<path d="M903 1903 c-93 -32 -159 -156 -134 -248 15 -55 43 -98 83 -127 87
-66 185 -62 269 10 75 65 98 164 58 252 -47 105 -164 153 -276 113z"/>
</g>
</svg>
